# Blender 3.3.1
# www.blender.org
o Cylinder
v 0.000000 -1.144325 -1.000000
v 0.000000 0.855675 -1.000000
v 0.866025 -1.144325 -0.500000
v 0.866025 0.855675 -0.500000
v 0.866025 -1.144325 0.500000
v 0.866025 0.855675 0.500000
v 0.000000 -1.144325 1.000000
v 0.000000 0.855675 1.000000
v -0.866025 -1.144325 0.500000
v -0.866025 0.855675 0.500000
v -0.866025 -1.144325 -0.500000
v -0.866025 0.855675 -0.500000
v 0.170311 0.922362 -0.106957
v 0.170311 1.138102 -0.106957
v 0.177642 0.922362 0.090220
v 0.177642 1.138102 0.090220
v 0.010547 0.922362 0.195157
v 0.010547 1.138102 0.195157
v -0.163879 0.922362 0.102917
v -0.163879 1.138102 0.102917
v -0.171210 0.922362 -0.094260
v -0.171210 1.138102 -0.094260
v -0.004115 0.922362 -0.199197
v -0.004115 1.138102 -0.199197
v 0.170311 0.807057 -0.106957
v 0.177642 0.807057 0.090220
v 0.010547 0.807057 0.195157
v -0.163879 0.807057 0.102917
v -0.171210 0.807057 -0.094260
v -0.004115 0.807057 -0.199197
v 0.170311 1.258683 -0.106957
v 0.177642 1.258683 0.090220
v 0.010547 1.258683 0.195157
v -0.163879 1.258683 0.102917
v -0.171210 1.258683 -0.094260
v -0.004115 1.258683 -0.199197
v 0.170311 1.359421 -0.106957
v 0.177642 1.359421 0.090220
v 0.010547 1.359421 0.195157
v -0.163879 1.359421 0.102917
v -0.171210 1.359421 -0.094260
v -0.004115 1.359421 -0.199197
v 0.170311 1.458634 -0.106957
v 0.177642 1.458634 0.090220
v 0.010547 1.458634 0.195157
v -0.163879 1.458634 0.102917
v -0.171210 1.458634 -0.094260
v -0.004115 1.458634 -0.199197
v 0.170311 1.562425 -0.106957
v 0.177642 1.562425 0.090220
v 0.010547 1.562425 0.195157
v -0.163879 1.562425 0.102917
v -0.171210 1.562425 -0.094260
v -0.004115 1.562425 -0.199197
v 0.170311 3.028924 -0.106957
v 0.177642 3.028924 0.090220
v 0.010547 3.028924 0.195157
v -0.163879 3.028924 0.102917
v -0.171210 3.028924 -0.094260
v -0.004115 3.028924 -0.199197
v 0.170311 3.154933 -0.106957
v 0.177642 3.154933 0.090220
v 0.010547 3.154933 0.195157
v -0.163879 3.154933 0.102917
v -0.171210 3.154933 -0.094260
v -0.004115 3.154933 -0.199197
v 0.170311 3.257315 -0.106957
v 0.177642 3.257315 0.090220
v 0.010547 3.257315 0.195157
v -0.163879 3.257315 0.102917
v -0.171210 3.257315 -0.094260
v -0.004115 3.257315 -0.199197
v 0.170311 3.375449 -0.106957
v 0.177642 3.375449 0.090220
v 0.010547 3.375449 0.195157
v -0.163879 3.375449 0.102917
v -0.171210 3.375449 -0.094260
v -0.004115 3.375449 -0.199197
v 0.170311 3.493583 -0.106957
v 0.177642 3.493583 0.090220
v 0.010547 3.493583 0.195157
v -0.163879 3.493583 0.102917
v -0.171210 3.493583 -0.094260
v -0.004115 3.493583 -0.199197
v 0.170311 3.788985 -0.106957
v 0.177642 3.788985 0.090220
v 0.010547 3.788985 0.195157
v -0.163879 3.788985 0.102917
v -0.171210 3.788985 -0.094260
v -0.004115 3.788985 -0.199197
v 0.052077 3.970973 -0.032705
v 0.054221 3.970973 0.024952
v 0.005360 3.970973 0.055638
v -0.045645 3.970973 0.028665
v -0.047789 3.970973 -0.028992
v 0.001073 3.970973 -0.059678
v 0.472340 3.923131 -0.094854
v 0.431613 3.923131 -0.271058
v -0.425181 3.923131 0.267018
v -0.284151 3.923131 0.380231
v -0.465907 3.923131 0.090814
v 0.290583 3.923131 -0.384270
v 0.282839 4.047882 -0.118622
v 0.275759 4.105120 -0.173180
v -0.269326 4.105120 0.169140
v -0.223258 4.047882 0.199212
v -0.276406 4.047882 0.114582
v 0.229690 4.047882 -0.203252
v 0.598503 4.104765 -0.174085
v 0.574504 4.104765 -0.360795
v -0.568072 4.104765 0.356755
v -0.410314 4.104765 0.459462
v -0.592071 4.104765 0.170046
v 0.416746 4.104765 -0.463502
v 0.345823 4.125725 -0.158177
v 0.343596 4.144804 -0.215782
v -0.337163 4.144804 0.211742
v -0.286242 4.125725 0.238767
v -0.339391 4.125725 0.154137
v 0.292675 4.125725 -0.242807
v 0.688108 4.560528 -0.230358
v 0.675990 4.560528 -0.424529
v -0.669558 4.560528 0.420489
v -0.499919 4.560528 0.515735
v -0.681676 4.560528 0.226319
v 0.506351 4.560528 -0.519775
v 0.401965 4.444759 -0.193434
v 0.404062 4.463839 -0.253756
v -0.397630 4.463839 0.249716
v -0.342384 4.444759 0.274024
v -0.395532 4.444759 0.189394
v 0.348816 4.444759 -0.278064
v 0.605981 4.844421 -0.178782
v 0.593863 4.844421 -0.372952
v 0.424224 4.844421 -0.468198
v 0.319837 4.728652 -0.141857
v 0.321935 4.747731 -0.202179
v 0.266689 4.728652 -0.226487
v -0.587430 4.844421 0.368912
v -0.417792 4.844421 0.464159
v -0.599549 4.844421 0.174742
v -0.315502 4.747731 0.198139
v -0.260256 4.728652 0.222448
v -0.313405 4.728652 0.137818
vn 0.5000 -0.0000 -0.8660
vn 1.0000 -0.0000 -0.0000
vn 0.5000 -0.0000 0.8660
vn -0.5000 -0.0000 0.8660
vn -0.0000 1.0000 -0.0000
vn -1.0000 -0.0000 -0.0000
vn -0.5000 -0.0000 -0.8660
vn -0.0000 -1.0000 -0.0000
vn 0.9993 -0.0000 -0.0372
vn 0.5318 -0.0000 0.8469
vn -0.4675 -0.0000 0.8840
vn -0.9993 -0.0000 0.0372
vn -0.5318 -0.0000 -0.8469
vn 0.4675 -0.0000 -0.8840
vn -0.5318 -0.0000 -0.8468
vn 0.5318 -0.0000 0.8468
vn -0.4430 0.5534 -0.7054
vn 0.4069 -0.9128 -0.0363
vn 0.4073 -0.9106 -0.0708
vn 0.4064 -0.9136 -0.0151
vn -0.2116 0.9545 0.2101
vn -0.6059 0.7374 -0.2985
vn -0.1461 0.9499 0.2762
vn -0.4069 -0.9128 0.0363
vn -0.4073 -0.9106 0.0708
vn -0.4064 -0.9136 0.0151
vn 0.5891 0.5224 0.6165
vn 0.5979 0.5306 0.6008
vn 0.6099 0.5417 0.5785
vn 0.4430 0.5534 0.7054
vn 0.7659 -0.6265 -0.1446
vn 0.7636 -0.6325 -0.1295
vn 0.7701 -0.6126 -0.1780
vn 0.7954 0.3525 0.4930
vn 0.7884 0.3576 0.5005
vn 0.8032 0.3466 0.4845
vn 0.4629 -0.6265 -0.6271
vn 0.4483 -0.6325 -0.6316
vn 0.4171 -0.6447 -0.6407
vn 0.0986 0.3525 0.9306
vn 0.1084 0.3576 0.9275
vn 0.1258 0.3667 0.9218
vn 0.2116 0.9545 -0.2101
vn 0.6059 0.7374 0.2985
vn 0.1461 0.9499 -0.2762
vn -0.2995 0.5224 -0.7984
vn -0.2815 0.5306 -0.7995
vn -0.3288 0.5084 -0.7959
vn 0.2811 0.9545 -0.0994
vn -0.0057 0.7374 -0.6754
vn -0.0378 0.6919 -0.7210
vn 0.2094 -0.9128 -0.3507
vn 0.2407 -0.9106 -0.3361
vn 0.2617 -0.9084 -0.3260
vn -0.2811 0.9545 0.0994
vn 0.0057 0.7374 0.6754
vn 0.0378 0.6919 0.7210
vn -0.5891 0.5224 -0.6165
vn -0.5979 0.5306 -0.6008
vn -0.6099 0.5417 -0.5785
vn -0.2094 -0.9128 0.3507
vn -0.2407 -0.9106 0.3361
vn -0.2617 -0.9084 0.3260
vn 0.2995 0.5224 0.7984
vn 0.2815 0.5306 0.7995
vn 0.3288 0.5084 0.7959
vn 0.8602 0.1008 0.5000
vn 0.8581 0.1029 0.5030
vn 0.8555 0.1056 0.5070
vn 0.5203 -0.2109 -0.8275
vn 0.4906 -0.2207 -0.8430
vn 0.4770 -0.2250 -0.8496
vn 0.0768 0.1008 0.9919
vn 0.0804 0.1029 0.9914
vn 0.0706 0.0973 0.9928
vn 0.9787 0.1836 -0.0915
vn 0.9815 0.1886 -0.0324
vn 0.9816 0.1891 -0.0257
vn -0.6797 0.7317 0.0514
vn -0.5667 0.8173 0.1042
vn -0.7782 0.6280 -0.0032
vn -0.3415 0.7317 0.5899
vn -0.3400 0.8173 0.4652
vn -0.3286 0.8927 0.3084
vn -0.4629 -0.6265 0.6271
vn -0.4483 -0.6325 0.6316
vn -0.4171 -0.6447 0.6407
vn -0.0986 0.3525 -0.9306
vn -0.1084 0.3576 -0.9275
vn -0.1258 0.3667 -0.9218
vn 0.6797 0.7317 -0.0514
vn 0.5667 0.8173 -0.1042
vn 0.7782 0.6280 0.0032
vn -0.7659 -0.6265 0.1446
vn -0.7636 -0.6325 0.1295
vn -0.7701 -0.6126 0.1780
vn -0.7954 0.3525 -0.4930
vn -0.7884 0.3576 -0.5005
vn -0.8032 0.3466 -0.4845
vn 0.3415 0.7317 -0.5899
vn 0.3400 0.8173 -0.4652
vn 0.3286 0.8927 -0.3084
vn -0.1770 -0.1261 -0.9761
vn -0.8024 -0.1261 -0.5834
vn 0.9560 0.2874 -0.0597
vn 0.8024 -0.1261 0.5834
vn 0.9714 -0.2109 -0.1093
vn 0.9724 -0.2207 -0.0758
vn 0.9705 -0.2062 -0.1247
vn -0.5075 0.1836 0.8418
vn -0.4554 0.1886 0.8701
vn -0.5135 0.1830 0.8383
vn -0.9787 0.1836 0.0915
vn -0.9815 0.1886 0.0324
vn -0.9816 0.1891 0.0257
vn -0.5203 -0.2109 0.8275
vn -0.4906 -0.2207 0.8430
vn -0.4770 -0.2250 0.8496
vn -0.0768 0.1008 -0.9919
vn -0.0804 0.1029 -0.9914
vn -0.0706 0.0973 -0.9928
vn 0.5075 0.1836 -0.8418
vn 0.4554 0.1886 -0.8701
vn 0.5135 0.1830 -0.8383
vn -0.9714 -0.2109 0.1092
vn -0.9724 -0.2207 0.0758
vn -0.9705 -0.2062 0.1247
vn -0.8602 0.1008 -0.5000
vn -0.8581 0.1029 -0.5030
vn -0.8555 0.1056 -0.5070
vn -0.3257 0.9441 0.0521
vn -0.3305 0.9210 0.2061
vn -0.3301 0.9033 0.2742
vn -0.1884 0.9441 0.2707
vn -0.3291 0.9210 0.2082
vn -0.1588 0.9460 0.2828
vn -0.3136 -0.2568 0.9142
vn 0.4689 0.2874 -0.8352
vn -0.9596 -0.2568 -0.1146
vn 0.1770 -0.1261 0.9761
vn 0.1884 0.9441 -0.2707
vn 0.3291 0.9210 -0.2082
vn 0.1588 0.9460 -0.2828
vn 0.3257 0.9441 -0.0521
vn 0.3305 0.9210 -0.2061
vn 0.3301 0.9033 -0.2742
vn 0.9596 -0.2568 0.1146
vn -0.9560 0.2874 0.0597
vn 0.3136 -0.2568 -0.9142
vn -0.4689 0.2874 0.8352
vn 0.4073 -0.9084 -0.0941
vn -0.6330 0.6919 -0.3472
vn -0.4073 -0.9084 0.0941
vn 0.5741 0.5084 0.6418
vn 0.7582 -0.6447 -0.0975
vn 0.7757 0.3667 0.5136
vn 0.4948 -0.6126 -0.6164
vn 0.0875 0.3466 0.9339
vn 0.6330 0.6919 0.3472
vn -0.2562 0.5417 -0.8006
vn 0.3123 0.9499 -0.0116
vn 0.1901 -0.9136 -0.3595
vn -0.3123 0.9499 0.0116
vn -0.5741 0.5084 -0.6418
vn -0.1901 -0.9136 0.3595
vn 0.2562 0.5417 0.8006
vn 0.8636 0.0973 0.4947
vn 0.5339 -0.2062 -0.8200
vn 0.0851 0.1056 0.9908
vn 0.9782 0.1830 -0.0984
vn -0.4205 0.8927 0.1620
vn -0.3351 0.6280 0.7024
vn -0.4948 -0.6126 0.6164
vn -0.0875 0.3466 -0.9339
vn 0.4205 0.8927 -0.1620
vn -0.7582 -0.6447 0.0975
vn -0.7757 0.3667 -0.5136
vn 0.3351 0.6280 -0.7024
vn 0.9725 -0.2250 -0.0607
vn -0.4495 0.1891 0.8731
vn -0.9782 0.1830 0.0984
vn -0.5339 -0.2062 0.8200
vn -0.0851 0.1056 -0.9908
vn 0.4495 0.1891 -0.8731
vn -0.9725 -0.2250 0.0607
vn -0.8636 0.0973 -0.4947
vn -0.3237 0.9460 0.0202
vn -0.3903 0.9033 0.1782
vn 0.3903 0.9033 -0.1782
vn 0.3237 0.9460 -0.0202
vt 0.490600 0.000000
vt 0.437104 0.481465
vt 0.437104 0.267481
vt 0.490600 0.213985
vt 0.854010 0.000000
vt 0.437104 0.000000
vt 0.529762 0.427969
vt 0.437104 0.213985
vt 0.854010 0.213985
vt 0.437104 0.374473
vt 0.597592 0.641954
vt 0.747018 0.000000
vt 0.622420 0.481465
vt 0.747018 0.213985
vt 0.597592 0.855939
vt 0.529762 0.427969
vt 0.544096 0.641954
vt 0.622420 0.588458
vt 0.544096 0.855939
vt 0.622420 0.374473
vt 0.651088 0.000000
vt 0.437104 0.641954
vt 0.529762 0.641954
vt 0.437104 0.855939
vt 0.622420 0.267481
vt 0.651088 0.213985
vt 0.597592 0.000000
vt 0.437104 0.588458
vt 0.529762 0.213985
vt 0.597592 0.213985
vt 0.132350 0.972230
vt 0.651088 0.028056
vt 0.125109 0.920271
vt 0.651088 0.080531
vt 0.173444 0.967081
vt 0.166203 0.915122
vt 0.699053 0.697260
vt 0.214682 0.960769
vt 0.207441 0.908810
vt 0.699053 0.644785
vt 0.350902 0.972230
vt 0.747018 0.697249
vt 0.747018 0.644775
vt 0.343661 0.920271
vt 0.391996 0.967081
vt 0.384755 0.915122
vt 0.699053 0.028046
vt 0.433234 0.960769
vt 0.425993 0.908810
vt 0.699053 0.080520
vt 0.478667 0.951925
vt 0.136220 1.000000
vt 0.651089 0.000010
vt 0.437104 0.927929
vt 0.177314 0.994851
vt 0.437104 0.879935
vt 0.218552 0.988539
vt 0.699053 0.725306
vt 0.354772 1.000000
vt 0.478667 0.855938
vt 0.747018 0.725295
vt 0.520231 0.879935
vt 0.395866 0.994851
vt 0.520231 0.927929
vt 0.437104 0.988539
vt 0.699053 0.000000
vt 0.651088 0.109859
vt 0.121062 0.891231
vt 0.162156 0.886081
vt 0.203394 0.879769
vt 0.699053 0.615456
vt 0.747018 0.615446
vt 0.339614 0.891231
vt 0.380708 0.886081
vt 0.421946 0.879769
vt 0.699053 0.109849
vt 0.651088 0.134362
vt 0.117681 0.866969
vt 0.158775 0.861819
vt 0.200013 0.855507
vt 0.699053 0.590954
vt 0.747018 0.590943
vt 0.336233 0.866969
vt 0.377327 0.861819
vt 0.418565 0.855507
vt 0.699053 0.134352
vt 0.114351 0.843074
vt 0.651088 0.158493
vt 0.155445 0.837925
vt 0.196683 0.831613
vt 0.699053 0.566822
vt 0.747018 0.566812
vt 0.332903 0.843074
vt 0.373997 0.837925
vt 0.415235 0.831613
vt 0.699053 0.158483
vt 0.651088 0.183739
vt 0.110868 0.818078
vt 0.151962 0.812928
vt 0.193199 0.806616
vt 0.699053 0.541577
vt 0.747018 0.541567
vt 0.329420 0.818077
vt 0.370514 0.812928
vt 0.411751 0.806616
vt 0.699053 0.183728
vt 0.061647 0.464886
vt 0.651088 0.540436
vt 0.102741 0.459737
vt 0.143979 0.453424
vt 0.699053 0.184880
vt 0.747018 0.184870
vt 0.280199 0.464886
vt 0.321293 0.459737
vt 0.362531 0.453424
vt 0.699053 0.540425
vt 0.651088 0.571085
vt 0.057418 0.434538
vt 0.098512 0.429389
vt 0.139750 0.423077
vt 0.699053 0.154231
vt 0.747018 0.154221
vt 0.275970 0.434538
vt 0.317064 0.429389
vt 0.358302 0.423077
vt 0.699053 0.571075
vt 0.651088 0.595987
vt 0.053982 0.409881
vt 0.095076 0.404731
vt 0.136313 0.398419
vt 0.699053 0.129328
vt 0.747018 0.129318
vt 0.272534 0.409880
vt 0.313628 0.404731
vt 0.354865 0.398418
vt 0.699053 0.595977
vt 0.651088 0.624721
vt 0.050017 0.381429
vt 0.091111 0.376280
vt 0.132348 0.369967
vt 0.699053 0.100595
vt 0.747018 0.100585
vt 0.268569 0.381429
vt 0.309663 0.376280
vt 0.350900 0.369967
vt 0.699053 0.624711
vt 0.651088 0.653455
vt 0.046052 0.352978
vt 0.087146 0.347829
vt 0.128383 0.341516
vt 0.699053 0.071861
vt 0.747018 0.071851
vt 0.264604 0.352978
vt 0.305698 0.347829
vt 0.346935 0.341516
vt 0.699053 0.653444
vt 0.651088 0.725305
vt 0.036137 0.281833
vt 0.788582 0.749302
vt 0.747018 0.725305
vt 0.077231 0.276684
vt 0.699053 0.000010
vt 0.118469 0.270371
vt 0.615926 0.865396
vt 0.254689 0.281833
vt 0.747018 0.000000
vt 0.657490 0.841399
vt 0.699053 0.865396
vt 0.295783 0.276684
vt 0.699053 0.725295
vt 0.830145 0.725305
vt 0.337021 0.270371
vt 0.634574 0.325784
vt 0.071225 0.232031
vt 0.646728 0.318767
vt 0.646728 0.304733
vt 0.083283 0.230186
vt 0.634574 0.297715
vt 0.289777 0.232031
vt 0.622420 0.304733
vt 0.622420 0.318767
vt 0.301835 0.230186
vt 0.747018 0.809950
vt 0.774549 0.438832
vt 0.000000 0.255508
vt 0.788582 0.824354
vt 0.842581 0.447019
vt 0.842581 0.217923
vt 0.657490 0.766347
vt 0.186695 0.226932
vt 0.615926 0.780752
vt 0.885284 0.213984
vt 0.699053 0.780752
vt 0.218552 0.255508
vt 0.774549 0.663680
vt 0.885284 0.443080
vt 0.830145 0.809950
vt 0.405247 0.226932
vt 0.819543 0.410092
vt 0.012223 0.222144
vt 0.646728 0.384431
vt 0.634574 0.390030
vt 0.634574 0.233469
vt 0.137123 0.203026
vt 0.646728 0.239068
vt 0.819543 0.634940
vt 0.230774 0.222144
vt 0.622420 0.239068
vt 0.622420 0.384431
vt 0.355675 0.203026
vt 0.915439 0.180850
vt 0.747018 0.846186
vt 0.756873 0.393837
vt 0.788582 0.865396
vt 0.824908 0.492769
vt 0.878197 0.179835
vt 0.657490 0.725305
vt 0.824908 0.263673
vt 0.854332 0.905141
vt 0.211735 0.178421
vt 0.870147 0.259530
vt 0.891574 0.906156
vt 0.699053 0.744515
vt 0.756873 0.618685
vt 0.870147 0.488625
vt 0.430287 0.178421
vt 0.810613 0.390750
vt 0.646728 0.402521
vt 0.747018 0.725306
vt 0.634574 0.409514
vt 0.633710 0.556168
vt 0.734744 0.729239
vt 0.903805 0.217917
vt 0.634574 0.213985
vt 0.633710 0.707079
vt 0.647843 0.711337
vt 0.150054 0.181899
vt 0.646728 0.220978
vt 0.916079 0.213984
vt 0.810613 0.615598
vt 0.622420 0.220978
vt 0.647843 0.560426
vt 0.622420 0.402521
vt 0.368606 0.181899
vt 0.894218 0.070098
vt 0.747018 0.282448
vt 0.819543 0.604414
vt 0.854010 0.069092
vt 0.819543 0.375319
vt 0.830145 0.794397
vt 0.218552 0.065270
vt 0.866584 0.371029
vt 0.747018 0.507296
vt 0.870353 0.795403
vt 0.437104 0.065270
vt 0.866585 0.600125
vt 0.804715 0.312821
vt 0.729577 0.802376
vt 0.622420 0.478754
vt 0.716223 0.806276
vt 0.885284 0.294955
vt 0.622420 0.629665
vt 0.153201 0.102942
vt 0.637211 0.633912
vt 0.804715 0.537669
vt 0.898638 0.291055
vt 0.637211 0.483001
vt 0.371753 0.102942
vt 0.915439 0.001005
vt 0.520231 0.893896
vt 0.761846 0.213984
vt 0.875231 0.000000
vt 0.548488 0.855938
vt 0.838243 0.672175
vt 0.407307 0.000000
vt 0.595706 0.859059
vt 0.885284 0.667886
vt 0.573636 0.939424
vt 0.747018 0.871974
vt 0.819543 0.244357
vt 0.733664 0.875874
vt 0.581220 0.926853
vt 0.633052 0.409514
vt 0.341957 0.037672
vt 0.595706 0.929237
vt 0.647843 0.413761
vt 0.644184 0.948881
vt 0.851366 0.725306
vt 0.838243 0.443080
vt 0.188755 0.000000
vt 0.615926 0.910923
vt 0.885284 0.438790
vt 0.891574 0.726312
vt 0.761846 0.438832
vt 0.691401 0.945760
vt 0.902725 0.364552
vt 0.676915 0.877966
vt 0.633052 0.560426
vt 0.123405 0.037672
vt 0.669331 0.865396
vt 0.647843 0.564672
vt 0.691401 0.875583
vt 0.819543 0.469205
vt 0.916079 0.360653
s 1
f 2/4/1 3/6/1 1/1/1
f 4/9/2 5/12/2 3/5/2
f 6/15/3 7/17/3 5/11/3
f 8/19/4 9/22/4 7/17/4
f 2/3/5 10/25/5 6/16/5
f 10/26/6 11/27/6 9/21/6
f 12/30/7 1/1/7 11/27/7
f 3/7/8 7/18/8 11/28/8
f 14/33/9 15/35/9 13/31/9
f 16/36/10 17/38/10 15/35/10
f 18/40/11 19/42/11 17/37/11
f 20/44/12 21/45/12 19/41/12
f 14/33/9 32/69/9 16/36/9
f 22/46/13 23/48/13 21/45/13
f 24/50/14 13/32/14 23/47/14
f 21/45/12 28/59/12 19/41/12
f 26/54/8 28/60/8 30/64/8
f 17/38/10 26/55/10 15/35/10
f 23/48/13 29/63/13 21/45/13
f 15/35/9 25/52/9 13/31/9
f 19/42/11 27/58/11 17/37/11
f 13/32/14 30/66/14 23/47/14
f 35/74/13 42/85/13 36/75/13
f 18/40/11 34/72/11 20/43/11
f 24/50/14 31/67/14 14/34/14
f 20/44/12 35/74/12 22/46/12
f 16/36/10 33/70/10 18/39/10
f 22/46/13 36/75/13 24/49/13
f 40/83/12 47/94/12 41/84/12
f 33/71/11 40/82/11 34/72/11
f 31/68/9 38/79/9 32/69/9
f 36/76/14 37/77/14 31/67/14
f 34/73/12 41/84/12 35/74/12
f 32/69/10 39/80/10 33/70/10
f 45/91/11 52/102/11 46/92/11
f 38/79/10 45/90/10 39/80/10
f 41/84/13 48/95/13 42/85/13
f 39/81/11 46/92/11 40/82/11
f 37/78/9 44/89/9 38/79/9
f 42/86/14 43/88/14 37/77/14
f 50/99/10 57/110/10 51/100/10
f 44/89/9 49/98/9 50/99/9
f 43/88/14 54/106/14 49/97/14
f 46/93/12 53/104/12 47/94/12
f 44/89/10 51/100/10 45/90/10
f 47/94/13 54/105/13 48/95/13
f 56/109/9 61/118/9 62/119/9
f 53/104/13 60/115/13 54/105/13
f 51/101/11 58/112/11 52/102/11
f 49/98/9 56/109/9 50/99/9
f 54/106/14 55/108/14 49/97/14
f 52/103/12 59/114/12 53/104/12
f 65/124/15 72/135/13 66/125/13
f 55/108/14 66/126/14 61/117/14
f 58/113/12 65/124/12 59/114/12
f 56/109/10 63/120/10 57/110/10
f 59/114/13 66/125/13 60/115/13
f 57/111/11 64/122/11 58/112/11
f 72/136/14 73/137/14 67/127/14
f 63/121/11 70/132/11 64/122/11
f 61/118/9 68/129/9 62/119/9
f 66/126/14 67/127/14 61/117/14
f 64/123/12 71/134/12 65/124/12
f 62/119/10 69/130/10 63/120/10
f 77/144/13 84/155/13 78/145/13
f 70/133/12 77/144/12 71/134/12
f 68/129/10 75/140/16 69/130/10
f 71/134/13 78/145/13 72/135/13
f 69/131/11 76/142/11 70/132/11
f 67/128/9 74/139/9 68/129/9
f 84/156/14 85/157/14 79/147/14
f 75/141/11 82/152/11 76/142/11
f 73/138/9 80/149/9 74/139/9
f 78/146/14 79/147/14 73/137/14
f 76/143/12 83/154/12 77/144/12
f 74/139/16 81/150/10 75/140/16
f 89/169/17 96/182/17 90/172/17
f 82/153/12 89/169/12 83/154/12
f 80/149/10 87/163/10 81/150/10
f 83/154/13 90/172/13 84/155/13
f 81/151/11 88/166/11 82/152/11
f 79/148/9 86/161/9 80/149/9
f 94/178/5 93/176/5 91/173/5
f 85/159/18 97/183/19 86/160/20
f 91/173/21 108/209/22 96/181/23
f 88/167/24 101/193/25 89/168/26
f 87/163/27 106/204/28 100/190/29
f 86/161/30 93/177/30 87/163/30
f 98/186/31 109/212/32 97/183/33
f 100/190/34 118/237/35 112/220/36
f 98/187/37 114/225/38 110/215/39
f 97/184/40 115/227/41 103/199/42
f 94/178/43 106/205/44 93/176/45
f 89/169/46 107/207/47 95/179/48
f 94/178/49 107/208/50 105/203/51
f 85/159/52 102/197/53 98/186/54
f 91/173/55 103/201/56 104/202/57
f 90/172/58 108/210/59 102/198/60
f 88/167/61 100/191/62 99/189/63
f 86/161/64 103/200/65 92/174/66
f 112/220/67 130/263/68 124/251/69
f 110/215/70 126/256/71 122/247/72
f 109/213/73 127/257/74 115/227/75
f 117/233/76 131/266/77 129/261/78
f 104/202/79 120/243/80 108/209/81
f 104/202/82 115/228/83 116/230/84
f 99/188/85 112/221/86 111/218/87
f 101/195/88 119/240/89 107/206/90
f 105/203/91 118/238/92 106/205/93
f 99/189/94 113/223/95 101/193/96
f 102/198/97 120/244/98 114/226/99
f 105/203/100 119/241/101 117/234/102
f 125/253/103 144/303/103 131/265/103
f 126/255/104 138/284/104 135/275/104
f 121/245/105 134/272/105 133/269/105
f 124/251/106 143/299/106 140/290/106
f 110/216/107 121/245/108 109/211/109
f 116/231/110 132/267/111 120/242/112
f 116/232/113 127/258/114 128/260/115
f 111/218/116 124/252/117 123/249/118
f 113/224/119 131/265/120 119/240/121
f 117/235/122 130/264/123 118/236/124
f 111/219/125 125/254/126 113/222/127
f 114/226/128 132/268/129 126/255/130
f 133/270/131 137/282/132 136/278/133
f 135/276/134 137/282/135 134/273/136
f 128/259/137 138/286/137 132/267/137
f 126/256/138 134/274/138 122/247/138
f 128/260/139 136/279/139 137/281/139
f 121/246/140 136/280/140 127/257/140
f 140/291/141 142/297/142 139/287/143
f 141/295/144 142/297/145 144/302/146
f 129/261/147 144/304/147 142/296/147
f 125/254/148 139/288/148 141/293/148
f 129/262/149 143/301/149 130/264/149
f 124/252/150 139/289/150 123/249/150
f 2/4/1 4/8/1 3/6/1
f 4/9/2 6/14/2 5/12/2
f 6/15/3 8/19/3 7/17/3
f 8/19/4 10/24/4 9/22/4
f 6/16/5 4/10/5 2/3/5
f 2/3/5 12/29/5 10/25/5
f 10/25/5 8/20/5 6/16/5
f 10/26/6 12/30/6 11/27/6
f 12/30/7 2/4/7 1/1/7
f 11/28/8 1/2/8 3/7/8
f 3/7/8 5/13/8 7/18/8
f 7/18/8 9/23/8 11/28/8
f 14/33/9 16/36/9 15/35/9
f 16/36/10 18/39/10 17/38/10
f 18/40/11 20/43/11 19/42/11
f 20/44/12 22/46/12 21/45/12
f 14/33/9 31/68/9 32/69/9
f 22/46/13 24/49/13 23/48/13
f 24/50/14 14/34/14 13/32/14
f 21/45/12 29/63/12 28/59/12
f 30/64/8 25/51/8 26/54/8
f 26/54/8 27/56/8 28/60/8
f 28/60/8 29/62/8 30/64/8
f 17/38/10 27/57/10 26/55/10
f 23/48/13 30/65/13 29/63/13
f 15/35/9 26/55/9 25/52/9
f 19/42/11 28/61/11 27/58/11
f 13/32/14 25/53/14 30/66/14
f 35/74/13 41/84/13 42/85/13
f 18/40/11 33/71/11 34/72/11
f 24/50/14 36/76/14 31/67/14
f 20/44/12 34/73/12 35/74/12
f 16/36/10 32/69/10 33/70/10
f 22/46/13 35/74/13 36/75/13
f 40/83/12 46/93/12 47/94/12
f 33/71/11 39/81/11 40/82/11
f 31/68/9 37/78/9 38/79/9
f 36/76/14 42/86/14 37/77/14
f 34/73/12 40/83/12 41/84/12
f 32/69/10 38/79/10 39/80/10
f 45/91/11 51/101/11 52/102/11
f 38/79/10 44/89/10 45/90/10
f 41/84/13 47/94/13 48/95/13
f 39/81/11 45/91/11 46/92/11
f 37/78/9 43/87/9 44/89/9
f 42/86/14 48/96/14 43/88/14
f 50/99/10 56/109/10 57/110/10
f 44/89/9 43/87/9 49/98/9
f 43/88/14 48/96/14 54/106/14
f 46/93/12 52/103/12 53/104/12
f 44/89/10 50/99/10 51/100/10
f 47/94/13 53/104/13 54/105/13
f 56/109/9 55/107/9 61/118/9
f 53/104/13 59/114/13 60/115/13
f 51/101/11 57/111/11 58/112/11
f 49/98/9 55/107/9 56/109/9
f 54/106/14 60/116/14 55/108/14
f 52/103/12 58/113/12 59/114/12
f 65/124/15 71/134/13 72/135/13
f 55/108/14 60/116/14 66/126/14
f 58/113/12 64/123/12 65/124/12
f 56/109/10 62/119/10 63/120/10
f 59/114/13 65/124/15 66/125/13
f 57/111/11 63/121/11 64/122/11
f 72/136/14 78/146/14 73/137/14
f 63/121/11 69/131/11 70/132/11
f 61/118/9 67/128/9 68/129/9
f 66/126/14 72/136/14 67/127/14
f 64/123/12 70/133/12 71/134/12
f 62/119/10 68/129/10 69/130/10
f 77/144/13 83/154/13 84/155/13
f 70/133/12 76/143/12 77/144/12
f 68/129/10 74/139/16 75/140/16
f 71/134/13 77/144/13 78/145/13
f 69/131/11 75/141/11 76/142/11
f 67/128/9 73/138/9 74/139/9
f 84/156/14 90/170/14 85/157/14
f 75/141/11 81/151/11 82/152/11
f 73/138/9 79/148/9 80/149/9
f 78/146/14 84/156/14 79/147/14
f 76/143/12 82/153/12 83/154/12
f 74/139/16 80/149/10 81/150/10
f 89/169/17 95/179/17 96/182/17
f 82/153/12 88/165/12 89/169/12
f 80/149/10 86/161/16 87/163/10
f 83/154/13 89/169/13 90/172/13
f 81/151/11 87/162/11 88/166/11
f 79/148/9 85/158/9 86/161/9
f 93/176/5 92/175/5 91/173/5
f 91/173/5 96/181/5 95/180/5
f 95/180/5 94/178/5 91/173/5
f 85/159/18 98/186/151 97/183/19
f 91/173/21 104/202/152 108/209/22
f 88/167/24 99/189/153 101/193/25
f 87/163/27 93/177/154 106/204/28
f 86/161/30 92/174/30 93/177/30
f 98/186/31 110/214/155 109/212/32
f 100/190/34 106/204/156 118/237/35
f 98/187/37 102/196/157 114/225/38
f 97/184/40 109/213/158 115/227/41
f 94/178/43 105/203/159 106/205/44
f 89/169/46 101/194/160 107/207/47
f 94/178/49 95/180/161 107/208/50
f 85/159/52 90/171/162 102/197/53
f 91/173/55 92/175/163 103/201/56
f 90/172/58 96/182/164 108/210/59
f 88/167/61 87/164/165 100/191/62
f 86/161/64 97/185/166 103/200/65
f 112/220/67 118/237/167 130/263/68
f 110/215/70 114/225/168 126/256/71
f 109/213/73 121/246/169 127/257/74
f 117/233/76 119/239/170 131/266/77
f 104/202/79 116/230/171 120/243/80
f 104/202/82 103/201/172 115/228/83
f 99/188/85 100/192/173 112/221/86
f 101/195/88 113/224/174 119/240/89
f 105/203/91 117/234/175 118/238/92
f 99/189/94 111/217/176 113/223/95
f 102/198/97 108/210/177 120/244/98
f 105/203/100 107/208/178 119/241/101
f 125/253/103 141/294/103 144/303/103
f 126/255/104 132/268/104 138/284/104
f 121/245/105 122/248/105 134/272/105
f 124/251/106 130/263/106 143/299/106
f 110/216/107 122/248/179 121/245/108
f 116/231/110 128/259/180 132/267/111
f 116/232/113 115/229/181 127/258/114
f 111/218/116 112/221/182 124/252/117
f 113/224/119 125/253/183 131/265/120
f 117/235/122 129/262/184 130/264/123
f 111/219/125 123/250/185 125/254/126
f 114/226/128 120/244/186 132/268/129
f 133/270/131 134/273/187 137/282/132
f 135/276/134 138/285/188 137/282/135
f 128/259/137 137/283/137 138/286/137
f 126/256/138 135/277/138 134/274/138
f 128/260/139 127/258/139 136/279/139
f 121/246/140 133/271/140 136/280/140
f 140/291/141 143/300/189 142/297/142
f 141/295/144 139/287/190 142/297/145
f 129/261/147 131/266/147 144/304/147
f 125/254/148 123/250/148 139/288/148
f 129/262/149 142/298/149 143/301/149
f 124/252/150 140/292/150 139/289/150
