# Blender 3.3.1
# www.blender.org
o Cylinder
v 0.000000 -1.144325 -1.000000
v 0.000000 0.855675 -1.000000
v 0.866025 -1.144325 -0.500000
v 0.866025 0.855675 -0.500000
v 0.866025 -1.144325 0.500000
v 0.866025 0.855675 0.500000
v 0.000000 -1.144325 1.000000
v 0.000000 0.855675 1.000000
v -0.866025 -1.144325 0.500000
v -0.866025 0.855675 0.500000
v -0.866025 -1.144325 -0.500000
v -0.866025 0.855675 -0.500000
v 0.200302 0.922362 0.018025
v 0.200302 1.138102 0.018025
v 0.086727 0.922362 0.179373
v 0.086727 1.138102 0.179373
v -0.109793 0.922362 0.161688
v -0.109793 1.138102 0.161688
v -0.192737 0.922362 -0.017345
v -0.192737 1.138102 -0.017345
v -0.079161 0.922362 -0.178693
v -0.079161 1.138102 -0.178693
v 0.117358 0.922362 -0.161008
v 0.117358 1.138102 -0.161008
v 0.200302 0.807057 0.018025
v 0.086727 0.807057 0.179373
v -0.109793 0.807057 0.161688
v -0.192737 0.807057 -0.017345
v -0.079161 0.807057 -0.178693
v 0.117358 0.807057 -0.161008
v 0.200302 1.258683 0.018025
v 0.086727 1.258683 0.179373
v -0.109793 1.258683 0.161688
v -0.192737 1.258683 -0.017345
v -0.079161 1.258683 -0.178693
v 0.117358 1.258683 -0.161008
v 0.200302 1.359421 0.018025
v 0.086727 1.359421 0.179373
v -0.109793 1.359421 0.161688
v -0.192737 1.359421 -0.017345
v -0.079161 1.359421 -0.178693
v 0.117358 1.359421 -0.161008
v 0.200302 1.458634 0.018025
v 0.086727 1.458634 0.179373
v -0.109793 1.458634 0.161688
v -0.192737 1.458634 -0.017345
v -0.079161 1.458634 -0.178693
v 0.117358 1.458634 -0.161008
v 0.200302 1.562425 0.018025
v 0.086727 1.562425 0.179373
v -0.109793 1.562425 0.161688
v -0.192737 1.562425 -0.017345
v -0.079161 1.562425 -0.178693
v 0.117358 1.562425 -0.161008
v 0.200302 3.028924 0.018025
v 0.086727 3.028924 0.179373
v -0.109793 3.028924 0.161688
v -0.192737 3.028924 -0.017345
v -0.079161 3.028924 -0.178693
v 0.117358 3.028924 -0.161008
v 0.200302 3.154933 0.018025
v 0.086727 3.154933 0.179373
v -0.109793 3.154933 0.161688
v -0.192737 3.154933 -0.017345
v -0.079161 3.154933 -0.178693
v 0.117358 3.154933 -0.161008
v 0.200302 3.257315 0.018025
v 0.086727 3.257315 0.179373
v -0.109793 3.257315 0.161688
v -0.192737 3.257315 -0.017345
v -0.079161 3.257315 -0.178693
v 0.117358 3.257315 -0.161008
v 0.200302 3.375449 0.018025
v 0.086727 3.375449 0.179373
v -0.109793 3.375449 0.161688
v -0.192737 3.375449 -0.017345
v -0.079161 3.375449 -0.178693
v 0.117358 3.375449 -0.161008
v 0.200302 3.493583 0.018025
v 0.086727 3.493583 0.179373
v -0.109793 3.493583 0.161688
v -0.192737 3.493583 -0.017345
v -0.079161 3.493583 -0.178693
v 0.117358 3.493583 -0.161008
v 0.200302 3.788985 0.018025
v 0.086727 3.788985 0.179373
v -0.109793 3.788985 0.161688
v -0.192737 3.788985 -0.017345
v -0.079161 3.788985 -0.178693
v 0.117358 3.788985 -0.161008
v 0.061248 3.970973 0.005512
v 0.028037 3.970973 0.052692
v -0.029429 3.970973 0.047521
v -0.053683 3.970973 -0.004831
v -0.020472 3.970973 -0.052012
v 0.036994 3.970973 -0.046840
v 0.433319 3.923131 0.210563
v 0.507617 3.923131 0.045681
v -0.500052 3.923131 -0.045000
v -0.456385 3.923131 0.130498
v -0.425754 3.923131 -0.209883
v 0.463950 3.923131 -0.129818
v 0.296912 4.047882 0.076889
v 0.324318 4.105120 0.029186
v -0.316753 4.105120 -0.028505
v -0.298304 4.047882 0.023325
v -0.289347 4.047882 -0.076208
v 0.305869 4.047882 -0.022644
v 0.581698 4.104765 0.223916
v 0.675670 4.104765 0.060804
v -0.668105 4.104765 -0.060123
v -0.604765 4.104765 0.117146
v -0.574133 4.104765 -0.223236
v 0.612329 4.104765 -0.116465
v 0.370988 4.125725 0.083555
v 0.404101 4.144804 0.036365
v -0.396536 4.144804 -0.035685
v -0.372380 4.125725 0.016659
v -0.363423 4.125725 -0.082874
v 0.379945 4.125725 -0.015978
v 0.687082 4.560528 0.233400
v 0.795027 4.560528 0.071545
v -0.787462 4.560528 -0.070864
v -0.710149 4.560528 0.107662
v -0.679517 4.560528 -0.232719
v 0.717714 4.560528 -0.106981
v 0.437016 4.444759 0.089497
v 0.475215 4.463839 0.042765
v -0.467650 4.463839 -0.042084
v -0.438407 4.444759 0.010717
v -0.429450 4.444759 -0.088816
v 0.445973 4.444759 -0.010036
v 0.590493 4.844421 0.224708
v 0.698438 4.844421 0.062853
v 0.621124 4.844421 -0.115674
v 0.340426 4.728652 0.080805
v 0.378626 4.747731 0.034073
v 0.349383 4.728652 -0.018728
v -0.690873 4.844421 -0.062172
v -0.613559 4.844421 0.116354
v -0.582928 4.844421 -0.224027
v -0.371061 4.747731 -0.033392
v -0.341818 4.728652 0.019409
v -0.332861 4.728652 -0.080124
vn 0.5000 -0.0000 -0.8660
vn 1.0000 -0.0000 -0.0000
vn 0.5000 -0.0000 0.8660
vn -0.5000 -0.0000 0.8660
vn -0.0000 1.0000 -0.0000
vn -1.0000 -0.0000 -0.0000
vn -0.5000 -0.0000 -0.8660
vn -0.0000 -1.0000 -0.0000
vn 0.8177 -0.0000 0.5756
vn -0.0896 -0.0000 0.9960
vn -0.9074 -0.0000 0.4204
vn -0.8177 -0.0000 -0.5756
vn 0.0896 -0.0000 -0.9960
vn 0.9074 -0.0000 -0.4204
vn 0.0747 0.5534 -0.8296
vn 0.3458 -0.9128 0.2175
vn 0.3670 -0.9106 0.1903
vn 0.3325 -0.9136 0.2341
vn -0.2956 0.9545 0.0390
vn -0.3014 0.7374 -0.6045
vn -0.2835 0.9499 0.1314
vn -0.3458 -0.9128 -0.2175
vn -0.3670 -0.9106 -0.1903
vn -0.3325 -0.9136 -0.2341
vn 0.0955 0.5224 0.8474
vn 0.1120 0.5306 0.8402
vn 0.1350 0.5417 0.8297
vn -0.0747 0.5534 0.8296
vn -0.0746 0.5534 0.8296
vn 0.6970 -0.6265 0.3487
vn 0.6861 -0.6325 0.3594
vn 0.7206 -0.6126 0.3247
vn 0.3344 0.3525 0.8740
vn 0.3243 0.3576 0.8758
vn 0.3458 0.3466 0.8720
vn 0.7481 -0.6265 -0.2187
vn 0.7393 -0.6325 -0.2311
vn 0.7199 -0.6447 -0.2572
vn -0.4851 0.3525 0.8003
vn -0.4754 0.3576 0.8038
vn -0.4582 0.3667 0.8097
vn 0.2956 0.9545 -0.0390
vn 0.3014 0.7374 0.6045
vn 0.2835 0.9499 -0.1314
vn 0.2452 0.5224 -0.8167
vn 0.2602 0.5306 -0.8067
vn 0.2203 0.5084 -0.8325
vn 0.2839 0.9545 0.0911
vn 0.4045 0.7374 -0.5410
vn 0.4065 0.6919 -0.5967
vn 0.3790 -0.9128 -0.1523
vn 0.3951 -0.9106 -0.1217
vn 0.4056 -0.9084 -0.1009
vn -0.2839 0.9545 -0.0911
vn -0.4045 0.7374 0.5410
vn -0.4065 0.6919 0.5967
vn -0.0955 0.5224 -0.8474
vn -0.1120 0.5306 -0.8402
vn -0.1350 0.5417 -0.8297
vn -0.3790 -0.9128 0.1523
vn -0.3951 -0.9106 0.1217
vn -0.4056 -0.9084 0.1009
vn -0.2452 0.5224 0.8167
vn -0.2602 0.5306 0.8067
vn -0.2203 0.5084 0.8325
vn 0.3817 0.1008 0.9188
vn 0.3783 0.1029 0.9200
vn 0.3737 0.1056 0.9215
vn 0.9152 -0.2109 -0.3435
vn 0.9009 -0.2207 -0.3737
vn 0.8941 -0.2250 -0.3872
vn -0.5396 0.1008 0.8359
vn -0.5365 0.1029 0.8376
vn -0.5450 0.0973 0.8327
vn 0.8343 0.1836 0.5199
vn 0.8007 0.1886 0.5687
vn 0.7967 0.1891 0.5740
vn -0.5720 0.7317 -0.3707
vn -0.5140 0.8173 -0.2602
vn -0.6173 0.6280 -0.4738
vn -0.6290 0.7317 0.2626
vn -0.5522 0.8173 0.1643
vn -0.4482 0.8927 0.0464
vn -0.7481 -0.6265 0.2187
vn -0.7393 -0.6325 0.2311
vn -0.7199 -0.6447 0.2572
vn 0.4851 0.3525 -0.8003
vn 0.4754 0.3576 -0.8038
vn 0.4582 0.3667 -0.8097
vn 0.5720 0.7317 0.3707
vn 0.5140 0.8173 0.2602
vn 0.6173 0.6280 0.4738
vn -0.6970 -0.6265 -0.3487
vn -0.6861 -0.6325 -0.3594
vn -0.7206 -0.6126 -0.3247
vn -0.3344 0.3525 -0.8740
vn -0.3243 0.3576 -0.8758
vn -0.3458 0.3466 -0.8720
vn 0.6290 0.7317 -0.2626
vn 0.5523 0.8173 -0.1643
vn 0.4482 0.8927 -0.0464
vn 0.4503 -0.1261 -0.8839
vn -0.2852 -0.1261 -0.9501
vn 0.7969 0.2874 0.5314
vn 0.2852 -0.1261 0.9501
vn 0.8392 -0.2109 0.5013
vn 0.8197 -0.2207 0.5286
vn 0.8479 -0.2062 0.4885
vn -0.9137 0.1836 0.3626
vn -0.8893 0.1886 0.4166
vn -0.9163 0.1830 0.3562
vn -0.8343 0.1836 -0.5199
vn -0.8007 0.1886 -0.5687
vn -0.7967 0.1891 -0.5740
vn -0.9152 -0.2109 0.3435
vn -0.9009 -0.2207 0.3737
vn -0.8941 -0.2250 0.3872
vn 0.5396 0.1008 -0.8359
vn 0.5365 0.1029 -0.8376
vn 0.5450 0.0973 -0.8327
vn 0.9137 0.1836 -0.3626
vn 0.8893 0.1886 -0.4166
vn 0.9163 0.1830 -0.3562
vn -0.8392 -0.2109 -0.5013
vn -0.8197 -0.2207 -0.5286
vn -0.8479 -0.2062 -0.4885
vn -0.3817 0.1008 -0.9188
vn -0.3783 0.1029 -0.9200
vn -0.3737 0.1056 -0.9215
vn -0.2907 0.9441 -0.1557
vn -0.3878 0.9210 -0.0362
vn -0.4287 0.9033 0.0183
vn -0.3138 0.9441 0.1013
vn -0.3880 0.9210 -0.0336
vn -0.2976 0.9460 0.1289
vn -0.8031 -0.2568 0.5376
vn 0.8789 0.2874 -0.3806
vn -0.6943 -0.2568 -0.6723
vn -0.4503 -0.1261 0.8839
vn 0.3138 0.9441 -0.1013
vn 0.3880 0.9210 0.0336
vn 0.2976 0.9460 -0.1289
vn 0.2907 0.9441 0.1557
vn 0.3878 0.9210 0.0362
vn 0.4287 0.9033 -0.0183
vn 0.6943 -0.2568 0.6723
vn -0.7969 0.2874 -0.5314
vn 0.8031 -0.2568 -0.5376
vn 0.8032 -0.2568 -0.5376
vn -0.8789 0.2874 0.3806
vn 0.0746 0.5534 -0.8296
vn 0.3811 -0.9084 0.1717
vn -0.2935 0.6919 -0.6596
vn -0.3811 -0.9084 -0.1717
vn 0.0682 0.5084 0.8584
vn 0.6624 -0.6447 0.3816
vn 0.3063 0.3667 0.8785
vn 0.7670 -0.6126 -0.1909
vn -0.4959 0.3466 0.7962
vn 0.2935 0.6919 0.6596
vn 0.2810 0.5417 -0.7922
vn 0.2555 0.9499 0.1799
vn 0.3690 -0.9136 -0.1709
vn -0.2555 0.9499 -0.1799
vn -0.0682 0.5084 -0.8584
vn -0.3690 -0.9136 0.1709
vn -0.2810 0.5417 0.7922
vn 0.3876 0.0973 0.9167
vn 0.9215 -0.2062 -0.3292
vn -0.5323 0.1056 0.8400
vn 0.8380 0.1830 0.5140
vn -0.4327 0.8927 -0.1257
vn -0.6920 0.6280 0.3560
vn -0.7670 -0.6126 0.1909
vn 0.4959 0.3466 -0.7962
vn 0.4327 0.8927 0.1257
vn -0.6624 -0.6447 -0.3816
vn -0.3063 0.3667 -0.8785
vn 0.6920 0.6280 -0.3560
vn 0.8106 -0.2250 0.5406
vn -0.8864 0.1891 0.4226
vn -0.8380 0.1830 -0.5140
vn -0.9215 -0.2062 0.3292
vn 0.5323 0.1056 -0.8400
vn 0.8864 0.1891 -0.4226
vn -0.8106 -0.2250 -0.5406
vn -0.3876 0.0973 -0.9167
vn -0.2698 0.9460 -0.1799
vn -0.4185 0.9033 -0.0946
vn 0.4185 0.9033 0.0946
vn 0.2698 0.9460 0.1799
vt 0.490600 0.000000
vt 0.437104 0.481465
vt 0.437104 0.267481
vt 0.490600 0.213985
vt 0.854010 0.000000
vt 0.437104 0.000000
vt 0.529762 0.427969
vt 0.437104 0.213985
vt 0.854010 0.213985
vt 0.437104 0.374473
vt 0.597592 0.641954
vt 0.747018 0.000000
vt 0.622420 0.481465
vt 0.747018 0.213985
vt 0.597592 0.855939
vt 0.529762 0.427969
vt 0.544096 0.641954
vt 0.622420 0.588458
vt 0.544096 0.855939
vt 0.622420 0.374473
vt 0.651088 0.000000
vt 0.437104 0.641954
vt 0.529762 0.641954
vt 0.437104 0.855939
vt 0.622420 0.267481
vt 0.651088 0.213985
vt 0.597592 0.000000
vt 0.437104 0.588458
vt 0.529762 0.213985
vt 0.597592 0.213985
vt 0.132350 0.972230
vt 0.651088 0.028056
vt 0.125109 0.920271
vt 0.651088 0.080531
vt 0.173444 0.967081
vt 0.166203 0.915122
vt 0.699053 0.697260
vt 0.214682 0.960769
vt 0.207441 0.908810
vt 0.699053 0.644785
vt 0.350902 0.972230
vt 0.747018 0.697249
vt 0.747018 0.644775
vt 0.343661 0.920271
vt 0.391996 0.967081
vt 0.384755 0.915122
vt 0.699053 0.028046
vt 0.433234 0.960769
vt 0.425993 0.908810
vt 0.699053 0.080520
vt 0.478667 0.951925
vt 0.136220 1.000000
vt 0.651089 0.000010
vt 0.437104 0.927929
vt 0.177314 0.994851
vt 0.437104 0.879935
vt 0.218552 0.988539
vt 0.699053 0.725306
vt 0.354772 1.000000
vt 0.478667 0.855938
vt 0.747018 0.725295
vt 0.520231 0.879935
vt 0.395866 0.994851
vt 0.520231 0.927929
vt 0.437104 0.988539
vt 0.699053 0.000000
vt 0.651088 0.109859
vt 0.121062 0.891231
vt 0.162156 0.886081
vt 0.203394 0.879769
vt 0.699053 0.615456
vt 0.747018 0.615446
vt 0.339614 0.891231
vt 0.380708 0.886081
vt 0.421946 0.879769
vt 0.699053 0.109849
vt 0.651088 0.134362
vt 0.117681 0.866969
vt 0.158775 0.861819
vt 0.200013 0.855507
vt 0.699053 0.590954
vt 0.747018 0.590943
vt 0.336233 0.866969
vt 0.377327 0.861819
vt 0.418565 0.855507
vt 0.699053 0.134352
vt 0.114351 0.843074
vt 0.651088 0.158493
vt 0.155445 0.837925
vt 0.196683 0.831613
vt 0.699053 0.566822
vt 0.747018 0.566812
vt 0.332903 0.843074
vt 0.373997 0.837925
vt 0.415235 0.831613
vt 0.699053 0.158483
vt 0.651088 0.183739
vt 0.110868 0.818078
vt 0.151962 0.812928
vt 0.193199 0.806616
vt 0.699053 0.541577
vt 0.747018 0.541567
vt 0.329420 0.818077
vt 0.370514 0.812928
vt 0.411751 0.806616
vt 0.699053 0.183728
vt 0.061647 0.464886
vt 0.651088 0.540436
vt 0.102741 0.459737
vt 0.143979 0.453424
vt 0.699053 0.184880
vt 0.747018 0.184870
vt 0.280199 0.464886
vt 0.321293 0.459737
vt 0.362531 0.453424
vt 0.699053 0.540425
vt 0.651088 0.571085
vt 0.057418 0.434538
vt 0.098512 0.429389
vt 0.139750 0.423077
vt 0.699053 0.154231
vt 0.747018 0.154221
vt 0.275970 0.434538
vt 0.317064 0.429389
vt 0.358302 0.423077
vt 0.699053 0.571075
vt 0.651088 0.595987
vt 0.053982 0.409881
vt 0.095076 0.404731
vt 0.136313 0.398419
vt 0.699053 0.129328
vt 0.747018 0.129318
vt 0.272534 0.409880
vt 0.313628 0.404731
vt 0.354865 0.398418
vt 0.699053 0.595977
vt 0.651088 0.624721
vt 0.050017 0.381429
vt 0.091111 0.376280
vt 0.132348 0.369967
vt 0.699053 0.100595
vt 0.747018 0.100585
vt 0.268569 0.381429
vt 0.309663 0.376280
vt 0.350900 0.369967
vt 0.699053 0.624711
vt 0.651088 0.653455
vt 0.046052 0.352978
vt 0.087146 0.347829
vt 0.128383 0.341516
vt 0.699053 0.071861
vt 0.747018 0.071851
vt 0.264604 0.352978
vt 0.305698 0.347829
vt 0.346935 0.341516
vt 0.699053 0.653444
vt 0.651088 0.725305
vt 0.036137 0.281833
vt 0.788582 0.749302
vt 0.747018 0.725305
vt 0.077231 0.276684
vt 0.699053 0.000010
vt 0.118469 0.270371
vt 0.615926 0.865396
vt 0.254689 0.281833
vt 0.747018 0.000000
vt 0.657490 0.841399
vt 0.699053 0.865396
vt 0.295783 0.276684
vt 0.699053 0.725295
vt 0.830145 0.725305
vt 0.337021 0.270371
vt 0.634574 0.325784
vt 0.071225 0.232031
vt 0.646728 0.318767
vt 0.646728 0.304733
vt 0.083283 0.230186
vt 0.634574 0.297715
vt 0.289777 0.232031
vt 0.622420 0.304733
vt 0.622420 0.318767
vt 0.301835 0.230186
vt 0.747018 0.809950
vt 0.774549 0.438832
vt 0.000000 0.255508
vt 0.788582 0.824354
vt 0.842581 0.447019
vt 0.842581 0.217923
vt 0.657490 0.766347
vt 0.186695 0.226932
vt 0.615926 0.780752
vt 0.885284 0.213984
vt 0.699053 0.780752
vt 0.218552 0.255508
vt 0.774549 0.663680
vt 0.885284 0.443080
vt 0.830145 0.809950
vt 0.405247 0.226932
vt 0.819543 0.410092
vt 0.012223 0.222144
vt 0.646728 0.384431
vt 0.634574 0.390030
vt 0.634574 0.233469
vt 0.137123 0.203026
vt 0.646728 0.239068
vt 0.819543 0.634940
vt 0.230774 0.222144
vt 0.622420 0.239068
vt 0.622420 0.384431
vt 0.355675 0.203026
vt 0.915439 0.180850
vt 0.747018 0.846186
vt 0.756873 0.393837
vt 0.788582 0.865396
vt 0.824908 0.492769
vt 0.878197 0.179835
vt 0.657490 0.725305
vt 0.824908 0.263673
vt 0.854332 0.905141
vt 0.211735 0.178421
vt 0.870147 0.259530
vt 0.891574 0.906156
vt 0.699053 0.744515
vt 0.756873 0.618685
vt 0.870147 0.488625
vt 0.430287 0.178421
vt 0.810613 0.390750
vt 0.646728 0.402521
vt 0.747018 0.725306
vt 0.634574 0.409514
vt 0.633710 0.556168
vt 0.734744 0.729239
vt 0.903805 0.217917
vt 0.634574 0.213985
vt 0.633710 0.707079
vt 0.647843 0.711337
vt 0.150054 0.181899
vt 0.646728 0.220978
vt 0.916079 0.213984
vt 0.810613 0.615598
vt 0.622420 0.220978
vt 0.647843 0.560426
vt 0.622420 0.402521
vt 0.368606 0.181899
vt 0.894218 0.070098
vt 0.747018 0.282448
vt 0.819543 0.604414
vt 0.854010 0.069092
vt 0.819543 0.375319
vt 0.830145 0.794397
vt 0.218552 0.065270
vt 0.866584 0.371029
vt 0.747018 0.507296
vt 0.870353 0.795403
vt 0.437104 0.065270
vt 0.866585 0.600125
vt 0.804715 0.312821
vt 0.729577 0.802376
vt 0.622420 0.478754
vt 0.716223 0.806276
vt 0.885284 0.294955
vt 0.622420 0.629665
vt 0.153201 0.102942
vt 0.637211 0.633912
vt 0.804715 0.537669
vt 0.898638 0.291055
vt 0.637211 0.483001
vt 0.371753 0.102942
vt 0.915439 0.001005
vt 0.520231 0.893896
vt 0.761846 0.213984
vt 0.875231 0.000000
vt 0.548488 0.855938
vt 0.838243 0.672175
vt 0.407307 0.000000
vt 0.595706 0.859059
vt 0.885284 0.667886
vt 0.573636 0.939424
vt 0.747018 0.871974
vt 0.819543 0.244357
vt 0.733664 0.875874
vt 0.581220 0.926853
vt 0.633052 0.409514
vt 0.341957 0.037672
vt 0.595706 0.929237
vt 0.647843 0.413761
vt 0.644184 0.948881
vt 0.851366 0.725306
vt 0.838243 0.443080
vt 0.188755 0.000000
vt 0.615926 0.910923
vt 0.885284 0.438790
vt 0.891574 0.726312
vt 0.761846 0.438832
vt 0.691401 0.945760
vt 0.902725 0.364552
vt 0.676915 0.877966
vt 0.633052 0.560426
vt 0.123405 0.037672
vt 0.669331 0.865396
vt 0.647843 0.564672
vt 0.691401 0.875583
vt 0.819543 0.469205
vt 0.916079 0.360653
s 1
f 2/4/1 3/6/1 1/1/1
f 4/9/2 5/12/2 3/5/2
f 6/15/3 7/17/3 5/11/3
f 8/19/4 9/22/4 7/17/4
f 2/3/5 10/25/5 6/16/5
f 10/26/6 11/27/6 9/21/6
f 12/30/7 1/1/7 11/27/7
f 3/7/8 7/18/8 11/28/8
f 14/33/9 15/35/9 13/31/9
f 16/36/10 17/38/10 15/35/10
f 18/40/11 19/42/11 17/37/11
f 20/44/12 21/45/12 19/41/12
f 14/33/9 32/69/9 16/36/9
f 22/46/13 23/48/13 21/45/13
f 24/50/14 13/32/14 23/47/14
f 21/45/12 28/59/12 19/41/12
f 26/54/8 28/60/8 30/64/8
f 17/38/10 26/55/10 15/35/10
f 23/48/13 29/63/13 21/45/13
f 15/35/9 25/52/9 13/31/9
f 19/42/11 27/58/11 17/37/11
f 13/32/14 30/66/14 23/47/14
f 35/74/13 42/85/13 36/75/13
f 18/40/11 34/72/11 20/43/11
f 24/50/14 31/67/14 14/34/14
f 20/44/12 35/74/12 22/46/12
f 16/36/10 33/70/10 18/39/10
f 22/46/13 36/75/13 24/49/13
f 40/83/12 47/94/12 41/84/12
f 33/71/11 40/82/11 34/72/11
f 31/68/9 38/79/9 32/69/9
f 36/76/14 37/77/14 31/67/14
f 34/73/12 41/84/12 35/74/12
f 32/69/10 39/80/10 33/70/10
f 45/91/11 52/102/11 46/92/11
f 38/79/10 45/90/10 39/80/10
f 41/84/13 48/95/13 42/85/13
f 39/81/11 46/92/11 40/82/11
f 37/78/9 44/89/9 38/79/9
f 42/86/14 43/88/14 37/77/14
f 50/99/10 57/110/10 51/100/10
f 44/89/9 49/98/9 50/99/9
f 43/88/14 54/106/14 49/97/14
f 46/93/12 53/104/12 47/94/12
f 44/89/10 51/100/10 45/90/10
f 47/94/13 54/105/13 48/95/13
f 56/109/9 61/118/9 62/119/9
f 53/104/13 60/115/13 54/105/13
f 51/101/11 58/112/11 52/102/11
f 49/98/9 56/109/9 50/99/9
f 54/106/14 55/108/14 49/97/14
f 52/103/12 59/114/12 53/104/12
f 65/124/13 72/135/13 66/125/13
f 55/108/14 66/126/14 61/117/14
f 58/113/12 65/124/12 59/114/12
f 56/109/10 63/120/10 57/110/10
f 59/114/13 66/125/13 60/115/13
f 57/111/11 64/122/11 58/112/11
f 72/136/14 73/137/14 67/127/14
f 63/121/11 70/132/11 64/122/11
f 61/118/9 68/129/9 62/119/9
f 66/126/14 67/127/14 61/117/14
f 64/123/12 71/134/12 65/124/12
f 62/119/10 69/130/10 63/120/10
f 77/144/13 84/155/13 78/145/13
f 70/133/12 77/144/12 71/134/12
f 68/129/10 75/140/10 69/130/10
f 71/134/13 78/145/13 72/135/13
f 69/131/11 76/142/11 70/132/11
f 67/128/9 74/139/9 68/129/9
f 84/156/14 85/157/14 79/147/14
f 75/141/11 82/152/11 76/142/11
f 73/138/9 80/149/9 74/139/9
f 78/146/14 79/147/14 73/137/14
f 76/143/12 83/154/12 77/144/12
f 74/139/10 81/150/10 75/140/10
f 89/169/15 96/182/15 90/172/15
f 82/153/12 89/169/12 83/154/12
f 80/149/10 87/163/10 81/150/10
f 83/154/13 90/172/13 84/155/13
f 81/151/11 88/166/11 82/152/11
f 79/148/9 86/161/9 80/149/9
f 94/178/5 93/176/5 91/173/5
f 85/159/16 97/183/17 86/160/18
f 91/173/19 108/209/20 96/181/21
f 88/167/22 101/193/23 89/168/24
f 87/163/25 106/204/26 100/190/27
f 86/161/28 93/177/29 87/163/28
f 98/186/30 109/212/31 97/183/32
f 100/190/33 118/237/34 112/220/35
f 98/187/36 114/225/37 110/215/38
f 97/184/39 115/227/40 103/199/41
f 94/178/42 106/205/43 93/176/44
f 89/169/45 107/207/46 95/179/47
f 94/178/48 107/208/49 105/203/50
f 85/159/51 102/197/52 98/186/53
f 91/173/54 103/201/55 104/202/56
f 90/172/57 108/210/58 102/198/59
f 88/167/60 100/191/61 99/189/62
f 86/161/63 103/200/64 92/174/65
f 112/220/66 130/263/67 124/251/68
f 110/215/69 126/256/70 122/247/71
f 109/213/72 127/257/73 115/227/74
f 117/233/75 131/266/76 129/261/77
f 104/202/78 120/243/79 108/209/80
f 104/202/81 115/228/82 116/230/83
f 99/188/84 112/221/85 111/218/86
f 101/195/87 119/240/88 107/206/89
f 105/203/90 118/238/91 106/205/92
f 99/189/93 113/223/94 101/193/95
f 102/198/96 120/244/97 114/226/98
f 105/203/99 119/241/100 117/234/101
f 125/253/102 144/303/102 131/265/102
f 126/255/103 138/284/103 135/275/103
f 121/245/104 134/272/104 133/269/104
f 124/251/105 143/299/105 140/290/105
f 110/216/106 121/245/107 109/211/108
f 116/231/109 132/267/110 120/242/111
f 116/232/112 127/258/113 128/260/114
f 111/218/115 124/252/116 123/249/117
f 113/224/118 131/265/119 119/240/120
f 117/235/121 130/264/122 118/236/123
f 111/219/124 125/254/125 113/222/126
f 114/226/127 132/268/128 126/255/129
f 133/270/130 137/282/131 136/278/132
f 135/276/133 137/282/134 134/273/135
f 128/259/136 138/286/136 132/267/136
f 126/256/137 134/274/137 122/247/137
f 128/260/138 136/279/138 137/281/138
f 121/246/139 136/280/139 127/257/139
f 140/291/140 142/297/141 139/287/142
f 141/295/143 142/297/144 144/302/145
f 129/261/146 144/304/146 142/296/146
f 125/254/147 139/288/147 141/293/147
f 129/262/148 143/301/149 130/264/148
f 124/252/150 139/289/150 123/249/150
f 2/4/1 4/8/1 3/6/1
f 4/9/2 6/14/2 5/12/2
f 6/15/3 8/19/3 7/17/3
f 8/19/4 10/24/4 9/22/4
f 6/16/5 4/10/5 2/3/5
f 2/3/5 12/29/5 10/25/5
f 10/25/5 8/20/5 6/16/5
f 10/26/6 12/30/6 11/27/6
f 12/30/7 2/4/7 1/1/7
f 11/28/8 1/2/8 3/7/8
f 3/7/8 5/13/8 7/18/8
f 7/18/8 9/23/8 11/28/8
f 14/33/9 16/36/9 15/35/9
f 16/36/10 18/39/10 17/38/10
f 18/40/11 20/43/11 19/42/11
f 20/44/12 22/46/12 21/45/12
f 14/33/9 31/68/9 32/69/9
f 22/46/13 24/49/13 23/48/13
f 24/50/14 14/34/14 13/32/14
f 21/45/12 29/63/12 28/59/12
f 30/64/8 25/51/8 26/54/8
f 26/54/8 27/56/8 28/60/8
f 28/60/8 29/62/8 30/64/8
f 17/38/10 27/57/10 26/55/10
f 23/48/13 30/65/13 29/63/13
f 15/35/9 26/55/9 25/52/9
f 19/42/11 28/61/11 27/58/11
f 13/32/14 25/53/14 30/66/14
f 35/74/13 41/84/13 42/85/13
f 18/40/11 33/71/11 34/72/11
f 24/50/14 36/76/14 31/67/14
f 20/44/12 34/73/12 35/74/12
f 16/36/10 32/69/10 33/70/10
f 22/46/13 35/74/13 36/75/13
f 40/83/12 46/93/12 47/94/12
f 33/71/11 39/81/11 40/82/11
f 31/68/9 37/78/9 38/79/9
f 36/76/14 42/86/14 37/77/14
f 34/73/12 40/83/12 41/84/12
f 32/69/10 38/79/10 39/80/10
f 45/91/11 51/101/11 52/102/11
f 38/79/10 44/89/10 45/90/10
f 41/84/13 47/94/13 48/95/13
f 39/81/11 45/91/11 46/92/11
f 37/78/9 43/87/9 44/89/9
f 42/86/14 48/96/14 43/88/14
f 50/99/10 56/109/10 57/110/10
f 44/89/9 43/87/9 49/98/9
f 43/88/14 48/96/14 54/106/14
f 46/93/12 52/103/12 53/104/12
f 44/89/10 50/99/10 51/100/10
f 47/94/13 53/104/13 54/105/13
f 56/109/9 55/107/9 61/118/9
f 53/104/13 59/114/13 60/115/13
f 51/101/11 57/111/11 58/112/11
f 49/98/9 55/107/9 56/109/9
f 54/106/14 60/116/14 55/108/14
f 52/103/12 58/113/12 59/114/12
f 65/124/13 71/134/13 72/135/13
f 55/108/14 60/116/14 66/126/14
f 58/113/12 64/123/12 65/124/12
f 56/109/10 62/119/10 63/120/10
f 59/114/13 65/124/13 66/125/13
f 57/111/11 63/121/11 64/122/11
f 72/136/14 78/146/14 73/137/14
f 63/121/11 69/131/11 70/132/11
f 61/118/9 67/128/9 68/129/9
f 66/126/14 72/136/14 67/127/14
f 64/123/12 70/133/12 71/134/12
f 62/119/10 68/129/10 69/130/10
f 77/144/13 83/154/13 84/155/13
f 70/133/12 76/143/12 77/144/12
f 68/129/10 74/139/10 75/140/10
f 71/134/13 77/144/13 78/145/13
f 69/131/11 75/141/11 76/142/11
f 67/128/9 73/138/9 74/139/9
f 84/156/14 90/170/14 85/157/14
f 75/141/11 81/151/11 82/152/11
f 73/138/9 79/148/9 80/149/9
f 78/146/14 84/156/14 79/147/14
f 76/143/12 82/153/12 83/154/12
f 74/139/10 80/149/10 81/150/10
f 89/169/15 95/179/151 96/182/15
f 82/153/12 88/165/12 89/169/12
f 80/149/10 86/161/10 87/163/10
f 83/154/13 89/169/13 90/172/13
f 81/151/11 87/162/11 88/166/11
f 79/148/9 85/158/9 86/161/9
f 93/176/5 92/175/5 91/173/5
f 91/173/5 96/181/5 95/180/5
f 95/180/5 94/178/5 91/173/5
f 85/159/16 98/186/152 97/183/17
f 91/173/19 104/202/153 108/209/20
f 88/167/22 99/189/154 101/193/23
f 87/163/25 93/177/155 106/204/26
f 86/161/28 92/174/29 93/177/29
f 98/186/30 110/214/156 109/212/31
f 100/190/33 106/204/157 118/237/34
f 98/187/36 102/196/158 114/225/37
f 97/184/39 109/213/159 115/227/40
f 94/178/42 105/203/160 106/205/43
f 89/169/45 101/194/161 107/207/46
f 94/178/48 95/180/162 107/208/49
f 85/159/51 90/171/163 102/197/52
f 91/173/54 92/175/164 103/201/55
f 90/172/57 96/182/165 108/210/58
f 88/167/60 87/164/166 100/191/61
f 86/161/63 97/185/167 103/200/64
f 112/220/66 118/237/168 130/263/67
f 110/215/69 114/225/169 126/256/70
f 109/213/72 121/246/170 127/257/73
f 117/233/75 119/239/171 131/266/76
f 104/202/78 116/230/172 120/243/79
f 104/202/81 103/201/173 115/228/82
f 99/188/84 100/192/174 112/221/85
f 101/195/87 113/224/175 119/240/88
f 105/203/90 117/234/176 118/238/91
f 99/189/93 111/217/177 113/223/94
f 102/198/96 108/210/178 120/244/97
f 105/203/99 107/208/179 119/241/100
f 125/253/102 141/294/102 144/303/102
f 126/255/103 132/268/103 138/284/103
f 121/245/104 122/248/104 134/272/104
f 124/251/105 130/263/105 143/299/105
f 110/216/106 122/248/180 121/245/107
f 116/231/109 128/259/181 132/267/110
f 116/232/112 115/229/182 127/258/113
f 111/218/115 112/221/183 124/252/116
f 113/224/118 125/253/184 131/265/119
f 117/235/121 129/262/185 130/264/122
f 111/219/124 123/250/186 125/254/125
f 114/226/127 120/244/187 132/268/128
f 133/270/130 134/273/188 137/282/131
f 135/276/133 138/285/189 137/282/134
f 128/259/136 137/283/136 138/286/136
f 126/256/137 135/277/137 134/274/137
f 128/260/138 127/258/138 136/279/138
f 121/246/139 133/271/139 136/280/139
f 140/291/140 143/300/190 142/297/141
f 141/295/143 139/287/191 142/297/144
f 129/261/146 131/266/146 144/304/146
f 125/254/147 123/250/147 139/288/147
f 129/262/148 142/298/149 143/301/149
f 124/252/150 140/292/150 139/289/150
