# Blender 3.3.1
# www.blender.org
o Cylinder
v 0.000000 -1.144325 -1.000000
v 0.000000 0.855675 -1.000000
v 0.866025 -1.144325 -0.500000
v 0.866025 0.855675 -0.500000
v 0.866025 -1.144325 0.500000
v 0.866025 0.855675 0.500000
v 0.000000 -1.144325 1.000000
v 0.000000 0.855675 1.000000
v -0.866025 -1.144325 0.500000
v -0.866025 0.855675 0.500000
v -0.866025 -1.144325 -0.500000
v -0.866025 0.855675 -0.500000
v 0.200092 0.922362 0.020217
v 0.200092 1.138102 0.020217
v 0.084758 0.922362 0.180312
v 0.084758 1.138102 0.180312
v -0.111556 0.922362 0.160477
v -0.111556 1.138102 0.160477
v -0.192535 0.922362 -0.019453
v -0.192535 1.138102 -0.019453
v -0.077201 0.922362 -0.179549
v -0.077201 1.138102 -0.179549
v 0.119113 0.922362 -0.159714
v 0.119113 1.138102 -0.159714
v 0.200092 0.807057 0.020217
v 0.084758 0.807057 0.180312
v -0.111556 0.807057 0.160477
v -0.192535 0.807057 -0.019453
v -0.077201 0.807057 -0.179549
v 0.119113 0.807057 -0.159714
v 0.200092 1.258683 0.020217
v 0.084758 1.258683 0.180312
v -0.111556 1.258683 0.160477
v -0.192535 1.258683 -0.019453
v -0.077201 1.258683 -0.179549
v 0.119113 1.258683 -0.159714
v 0.200092 1.359421 0.020217
v 0.084758 1.359421 0.180312
v -0.111556 1.359421 0.160477
v -0.192535 1.359421 -0.019453
v -0.077201 1.359421 -0.179549
v 0.119113 1.359421 -0.159714
v 0.200092 1.458634 0.020217
v 0.084758 1.458634 0.180312
v -0.111556 1.458634 0.160477
v -0.192535 1.458634 -0.019453
v -0.077201 1.458634 -0.179549
v 0.119113 1.458634 -0.159714
v 0.200092 1.562425 0.020217
v 0.084758 1.562425 0.180312
v -0.111556 1.562425 0.160477
v -0.192535 1.562425 -0.019453
v -0.077201 1.562425 -0.179549
v 0.119113 1.562425 -0.159714
v 0.200092 3.028924 0.020217
v 0.084758 3.028924 0.180312
v -0.111556 3.028924 0.160477
v -0.192535 3.028924 -0.019453
v -0.077201 3.028924 -0.179549
v 0.119113 3.028924 -0.159714
v 0.200092 3.154933 0.020217
v 0.084758 3.154933 0.180312
v -0.111556 3.154933 0.160477
v -0.192535 3.154933 -0.019453
v -0.077201 3.154933 -0.179549
v 0.119113 3.154933 -0.159714
v 0.200092 3.257315 0.020217
v 0.084758 3.257315 0.180312
v -0.111556 3.257315 0.160477
v -0.192535 3.257315 -0.019453
v -0.077201 3.257315 -0.179549
v 0.119113 3.257315 -0.159714
v 0.200092 3.375449 0.020217
v 0.084758 3.375449 0.180312
v -0.111556 3.375449 0.160477
v -0.192535 3.375449 -0.019453
v -0.077201 3.375449 -0.179549
v 0.119113 3.375449 -0.159714
v 0.200092 3.493583 0.020217
v 0.084758 3.493583 0.180312
v -0.111556 3.493583 0.160477
v -0.192535 3.493583 -0.019453
v -0.077201 3.493583 -0.179549
v 0.119113 3.493583 -0.159714
v 0.200092 3.788985 0.020217
v 0.084758 3.788985 0.180312
v -0.111556 3.788985 0.160477
v -0.192535 3.788985 -0.019453
v -0.077201 3.788985 -0.179549
v 0.119113 3.788985 -0.159714
v 0.061184 3.970973 0.006182
v 0.027458 3.970973 0.052996
v -0.029947 3.970973 0.047196
v -0.053627 3.970973 -0.005418
v -0.019901 3.970973 -0.052233
v 0.037504 3.970973 -0.046433
v 0.430988 3.923131 0.215294
v 0.507087 3.923131 0.051234
v -0.499530 3.923131 -0.050471
v -0.457786 3.923131 0.125495
v -0.423431 3.923131 -0.214531
v 0.465343 3.923131 -0.124732
v 0.296053 4.047882 0.080134
v 0.323979 4.105120 0.032734
v -0.316422 4.105120 -0.031970
v -0.298542 4.047882 0.020058
v -0.288496 4.047882 -0.079371
v 0.306099 4.047882 -0.019295
v 0.579213 4.104765 0.230270
v 0.674964 4.104765 0.068196
v -0.667407 4.104765 -0.067433
v -0.606011 4.104765 0.110519
v -0.571655 4.104765 -0.229507
v 0.613568 4.104765 -0.109755
v 0.370051 4.125725 0.087611
v 0.403679 4.144804 0.040786
v -0.396121 4.144804 -0.040023
v -0.372540 4.125725 0.012582
v -0.362494 4.125725 -0.086847
v 0.380097 4.125725 -0.011818
v 0.684487 4.560528 0.240907
v 0.794197 4.560528 0.080243
v -0.786640 4.560528 -0.079480
v -0.711285 4.560528 0.099882
v -0.676929 4.560528 -0.240143
v 0.718842 4.560528 -0.099119
v 0.436010 4.444759 0.094275
v 0.474718 4.463839 0.047964
v -0.467161 4.463839 -0.047201
v -0.438499 4.444759 0.005917
v -0.428453 4.444759 -0.093512
v 0.446056 4.444759 -0.005154
v 0.587998 4.844421 0.231158
v 0.697708 4.844421 0.070494
v 0.622353 4.844421 -0.108868
v 0.339521 4.728652 0.084526
v 0.378230 4.747731 0.038215
v 0.349567 4.728652 -0.014903
v -0.690151 4.844421 -0.069731
v -0.614796 4.844421 0.109631
v -0.580441 4.844421 -0.230394
v -0.370673 4.747731 -0.037452
v -0.342010 4.728652 0.015666
v -0.331964 4.728652 -0.083763
vn 0.5000 -0.0000 -0.8660
vn 1.0000 -0.0000 -0.0000
vn 0.5000 -0.0000 0.8660
vn -0.5000 -0.0000 0.8660
vn -0.0000 1.0000 -0.0000
vn -1.0000 -0.0000 -0.0000
vn -0.5000 -0.0000 -0.8660
vn -0.0000 -1.0000 -0.0000
vn 0.8114 -0.0000 0.5845
vn -0.1005 -0.0000 0.9949
vn -0.9119 -0.0000 0.4104
vn -0.8114 -0.0000 -0.5845
vn 0.1005 -0.0000 -0.9949
vn 0.9119 -0.0000 -0.4104
vn 0.0837 0.5534 -0.8287
vn 0.3433 -0.9128 0.2213
vn 0.3649 -0.9106 0.1943
vn 0.3300 -0.9136 0.2377
vn -0.2960 0.9545 0.0358
vn -0.2948 0.7374 -0.6078
vn -0.2850 0.9499 0.1282
vn -0.3433 -0.9128 -0.2213
vn -0.3649 -0.9106 -0.1943
vn -0.3300 -0.9136 -0.2377
vn 0.0862 0.5224 0.8484
vn 0.1028 0.5306 0.8414
vn 0.1259 0.5417 0.8311
vn -0.0837 0.5534 0.8287
vn 0.6932 -0.6265 0.3564
vn 0.6822 -0.6325 0.3669
vn 0.7170 -0.6126 0.3326
vn 0.3249 0.3525 0.8776
vn 0.3147 0.3576 0.8792
vn 0.3362 0.3466 0.8757
vn 0.7504 -0.6265 -0.2105
vn 0.7418 -0.6325 -0.2230
vn 0.7227 -0.6447 -0.2493
vn -0.4938 0.3525 0.7949
vn -0.4842 0.3576 0.7985
vn -0.4670 0.3667 0.8047
vn 0.2960 0.9545 -0.0358
vn 0.2948 0.7374 0.6078
vn 0.2850 0.9499 -0.1282
vn 0.2541 0.5224 -0.8140
vn 0.2690 0.5306 -0.8038
vn 0.2294 0.5084 -0.8300
vn 0.2829 0.9545 0.0942
vn 0.4104 0.7374 -0.5365
vn 0.4130 0.6919 -0.5922
vn 0.3807 -0.9128 -0.1481
vn 0.3964 -0.9106 -0.1173
vn 0.4067 -0.9084 -0.0965
vn -0.2829 0.9545 -0.0942
vn -0.4104 0.7374 0.5365
vn -0.4130 0.6919 0.5922
vn -0.0862 0.5224 -0.8484
vn -0.1028 0.5306 -0.8414
vn -0.1259 0.5417 -0.8311
vn -0.3807 -0.9128 0.1481
vn -0.3964 -0.9106 0.1173
vn -0.4067 -0.9084 0.0965
vn -0.2541 0.5224 0.8140
vn -0.2690 0.5306 0.8038
vn -0.2294 0.5084 0.8300
vn 0.3716 0.1008 0.9229
vn 0.3682 0.1029 0.9240
vn 0.3636 0.1056 0.9255
vn 0.9189 -0.2109 -0.3334
vn 0.9049 -0.2207 -0.3639
vn 0.8983 -0.2250 -0.3774
vn -0.5487 0.1008 0.8299
vn -0.5456 0.1029 0.8317
vn -0.5541 0.0973 0.8267
vn 0.8285 0.1836 0.5290
vn 0.7944 0.1886 0.5774
vn 0.7904 0.1891 0.5827
vn -0.5679 0.7317 -0.3769
vn -0.5112 0.8173 -0.2658
vn -0.6121 0.6280 -0.4805
vn -0.6318 0.7317 0.2557
vn -0.5540 0.8173 0.1582
vn -0.4487 0.8927 0.0415
vn -0.7504 -0.6265 0.2105
vn -0.7418 -0.6325 0.2230
vn -0.7227 -0.6447 0.2493
vn 0.4938 0.3525 -0.7949
vn 0.4842 0.3576 -0.7985
vn 0.4670 0.3667 -0.8047
vn 0.5679 0.7317 0.3769
vn 0.5112 0.8173 0.2658
vn 0.6121 0.6280 0.4805
vn -0.6932 -0.6265 -0.3564
vn -0.6822 -0.6325 -0.3669
vn -0.7170 -0.6126 -0.3326
vn -0.3249 0.3525 -0.8776
vn -0.3147 0.3576 -0.8792
vn -0.3362 0.3466 -0.8757
vn 0.6318 0.7317 -0.2557
vn 0.5540 0.8173 -0.1582
vn 0.4487 0.8927 -0.0415
vn 0.4599 -0.1261 -0.8790
vn -0.2748 -0.1261 -0.9532
vn 0.7910 0.2874 0.5401
vn 0.2748 -0.1261 0.9532
vn 0.8336 -0.2109 0.5105
vn 0.8139 -0.2207 0.5375
vn 0.8425 -0.2062 0.4977
vn -0.9176 0.1836 0.3525
vn -0.8938 0.1886 0.4068
vn -0.9202 0.1830 0.3461
vn -0.8285 0.1836 -0.5290
vn -0.7944 0.1886 -0.5774
vn -0.7904 0.1891 -0.5827
vn -0.9189 -0.2109 0.3334
vn -0.9049 -0.2207 0.3639
vn -0.8983 -0.2250 0.3774
vn 0.5487 0.1008 -0.8299
vn 0.5456 0.1029 -0.8317
vn 0.5541 0.0973 -0.8267
vn 0.9176 0.1836 -0.3525
vn 0.8938 0.1886 -0.4068
vn 0.9202 0.1830 -0.3461
vn -0.8336 -0.2109 -0.5105
vn -0.8139 -0.2207 -0.5375
vn -0.8425 -0.2062 -0.4977
vn -0.3716 0.1008 -0.9229
vn -0.3682 0.1029 -0.9240
vn -0.3636 0.1056 -0.9255
vn -0.2890 0.9441 -0.1589
vn -0.3874 0.9210 -0.0404
vn -0.4289 0.9033 0.0136
vn -0.3149 0.9441 0.0979
vn -0.3876 0.9210 -0.0379
vn -0.2990 0.9460 0.1256
vn -0.8090 -0.2568 0.5288
vn 0.8830 0.2874 -0.3710
vn -0.6869 -0.2568 -0.6799
vn -0.4599 -0.1261 0.8790
vn 0.3149 0.9441 -0.0979
vn 0.3876 0.9210 0.0379
vn 0.2990 0.9460 -0.1256
vn 0.2890 0.9441 0.1589
vn 0.3874 0.9210 0.0404
vn 0.4289 0.9033 -0.0136
vn 0.6869 -0.2568 0.6799
vn -0.7910 0.2874 -0.5401
vn 0.8090 -0.2568 -0.5288
vn -0.8830 0.2874 0.3710
vn 0.3792 -0.9084 0.1759
vn -0.2862 0.6919 -0.6628
vn -0.3792 -0.9084 -0.1759
vn 0.0588 0.5084 0.8591
vn 0.6582 -0.6447 0.3889
vn 0.2966 0.3667 0.8818
vn 0.7691 -0.6126 -0.1824
vn -0.5046 0.3466 0.7907
vn 0.2862 0.6919 0.6628
vn 0.2896 0.5417 -0.7891
vn 0.2535 0.9499 0.1827
vn 0.3708 -0.9136 -0.1669
vn -0.2535 0.9499 -0.1827
vn -0.0588 0.5084 -0.8591
vn -0.3708 -0.9136 0.1669
vn -0.2896 0.5417 0.7891
vn 0.3776 0.0973 0.9209
vn 0.9250 -0.2062 -0.3191
vn -0.5414 0.1056 0.8341
vn 0.8323 0.1830 0.5232
vn -0.4313 0.8927 -0.1304
vn -0.6959 0.6280 0.3484
vn -0.7691 -0.6126 0.1824
vn 0.5046 0.3466 -0.7907
vn 0.4313 0.8927 0.1304
vn -0.6582 -0.6447 -0.3889
vn -0.2966 0.3667 -0.8818
vn 0.6959 0.6280 -0.3484
vn 0.8046 -0.2250 0.5495
vn -0.8910 0.1891 0.4128
vn -0.8323 0.1830 -0.5232
vn -0.9250 -0.2062 0.3191
vn 0.5414 0.1056 -0.8341
vn 0.8910 0.1891 -0.4128
vn -0.8046 -0.2250 -0.5495
vn -0.3776 0.0973 -0.9209
vn -0.2678 0.9460 -0.1829
vn -0.4175 0.9033 -0.0991
vn 0.4175 0.9033 0.0991
vn 0.2678 0.9460 0.1829
vt 0.490600 0.000000
vt 0.437104 0.481465
vt 0.437104 0.267481
vt 0.490600 0.213985
vt 0.854010 0.000000
vt 0.437104 0.000000
vt 0.529762 0.427969
vt 0.437104 0.213985
vt 0.854010 0.213985
vt 0.437104 0.374473
vt 0.597592 0.641954
vt 0.747018 0.000000
vt 0.622420 0.481465
vt 0.747018 0.213985
vt 0.597592 0.855939
vt 0.529762 0.427969
vt 0.544096 0.641954
vt 0.622420 0.588458
vt 0.544096 0.855939
vt 0.622420 0.374473
vt 0.651088 0.000000
vt 0.437104 0.641954
vt 0.529762 0.641954
vt 0.437104 0.855939
vt 0.622420 0.267481
vt 0.651088 0.213985
vt 0.597592 0.000000
vt 0.437104 0.588458
vt 0.529762 0.213985
vt 0.597592 0.213985
vt 0.132350 0.972230
vt 0.651088 0.028056
vt 0.125109 0.920271
vt 0.651088 0.080531
vt 0.173444 0.967081
vt 0.166203 0.915122
vt 0.699053 0.697260
vt 0.214682 0.960769
vt 0.207441 0.908810
vt 0.699053 0.644785
vt 0.350902 0.972230
vt 0.747018 0.697249
vt 0.747018 0.644775
vt 0.343661 0.920271
vt 0.391996 0.967081
vt 0.384755 0.915122
vt 0.699053 0.028046
vt 0.433234 0.960769
vt 0.425993 0.908810
vt 0.699053 0.080520
vt 0.478667 0.951925
vt 0.136220 1.000000
vt 0.651089 0.000010
vt 0.437104 0.927929
vt 0.177314 0.994851
vt 0.437104 0.879935
vt 0.218552 0.988539
vt 0.699053 0.725306
vt 0.354772 1.000000
vt 0.478667 0.855938
vt 0.747018 0.725295
vt 0.520231 0.879935
vt 0.395866 0.994851
vt 0.520231 0.927929
vt 0.437104 0.988539
vt 0.699053 0.000000
vt 0.651088 0.109859
vt 0.121062 0.891231
vt 0.162156 0.886081
vt 0.203394 0.879769
vt 0.699053 0.615456
vt 0.747018 0.615446
vt 0.339614 0.891231
vt 0.380708 0.886081
vt 0.421946 0.879769
vt 0.699053 0.109849
vt 0.651088 0.134362
vt 0.117681 0.866969
vt 0.158775 0.861819
vt 0.200013 0.855507
vt 0.699053 0.590954
vt 0.747018 0.590943
vt 0.336233 0.866969
vt 0.377327 0.861819
vt 0.418565 0.855507
vt 0.699053 0.134352
vt 0.114351 0.843074
vt 0.651088 0.158493
vt 0.155445 0.837925
vt 0.196683 0.831613
vt 0.699053 0.566822
vt 0.747018 0.566812
vt 0.332903 0.843074
vt 0.373997 0.837925
vt 0.415235 0.831613
vt 0.699053 0.158483
vt 0.651088 0.183739
vt 0.110868 0.818078
vt 0.151962 0.812928
vt 0.193199 0.806616
vt 0.699053 0.541577
vt 0.747018 0.541567
vt 0.329420 0.818077
vt 0.370514 0.812928
vt 0.411751 0.806616
vt 0.699053 0.183728
vt 0.061647 0.464886
vt 0.651088 0.540436
vt 0.102741 0.459737
vt 0.143979 0.453424
vt 0.699053 0.184880
vt 0.747018 0.184870
vt 0.280199 0.464886
vt 0.321293 0.459737
vt 0.362531 0.453424
vt 0.699053 0.540425
vt 0.651088 0.571085
vt 0.057418 0.434538
vt 0.098512 0.429389
vt 0.139750 0.423077
vt 0.699053 0.154231
vt 0.747018 0.154221
vt 0.275970 0.434538
vt 0.317064 0.429389
vt 0.358302 0.423077
vt 0.699053 0.571075
vt 0.651088 0.595987
vt 0.053982 0.409881
vt 0.095076 0.404731
vt 0.136313 0.398419
vt 0.699053 0.129328
vt 0.747018 0.129318
vt 0.272534 0.409880
vt 0.313628 0.404731
vt 0.354865 0.398418
vt 0.699053 0.595977
vt 0.651088 0.624721
vt 0.050017 0.381429
vt 0.091111 0.376280
vt 0.132348 0.369967
vt 0.699053 0.100595
vt 0.747018 0.100585
vt 0.268569 0.381429
vt 0.309663 0.376280
vt 0.350900 0.369967
vt 0.699053 0.624711
vt 0.651088 0.653455
vt 0.046052 0.352978
vt 0.087146 0.347829
vt 0.128383 0.341516
vt 0.699053 0.071861
vt 0.747018 0.071851
vt 0.264604 0.352978
vt 0.305698 0.347829
vt 0.346935 0.341516
vt 0.699053 0.653444
vt 0.651088 0.725305
vt 0.036137 0.281833
vt 0.788582 0.749302
vt 0.747018 0.725305
vt 0.077231 0.276684
vt 0.699053 0.000010
vt 0.118469 0.270371
vt 0.615926 0.865396
vt 0.254689 0.281833
vt 0.747018 0.000000
vt 0.657490 0.841399
vt 0.699053 0.865396
vt 0.295783 0.276684
vt 0.699053 0.725295
vt 0.830145 0.725305
vt 0.337021 0.270371
vt 0.634574 0.325784
vt 0.071225 0.232031
vt 0.646728 0.318767
vt 0.646728 0.304733
vt 0.083283 0.230186
vt 0.634574 0.297715
vt 0.289777 0.232031
vt 0.622420 0.304733
vt 0.622420 0.318767
vt 0.301835 0.230186
vt 0.747018 0.809950
vt 0.774549 0.438832
vt 0.000000 0.255508
vt 0.788582 0.824354
vt 0.842581 0.447019
vt 0.842581 0.217923
vt 0.657490 0.766347
vt 0.186695 0.226932
vt 0.615926 0.780752
vt 0.885284 0.213984
vt 0.699053 0.780752
vt 0.218552 0.255508
vt 0.774549 0.663680
vt 0.885284 0.443080
vt 0.830145 0.809950
vt 0.405247 0.226932
vt 0.819543 0.410092
vt 0.012223 0.222144
vt 0.646728 0.384431
vt 0.634574 0.390030
vt 0.634574 0.233469
vt 0.137123 0.203026
vt 0.646728 0.239068
vt 0.819543 0.634940
vt 0.230774 0.222144
vt 0.622420 0.239068
vt 0.622420 0.384431
vt 0.355675 0.203026
vt 0.915439 0.180850
vt 0.747018 0.846186
vt 0.756873 0.393837
vt 0.788582 0.865396
vt 0.824908 0.492769
vt 0.878197 0.179835
vt 0.657490 0.725305
vt 0.824908 0.263673
vt 0.854332 0.905141
vt 0.211735 0.178421
vt 0.870147 0.259530
vt 0.891574 0.906156
vt 0.699053 0.744515
vt 0.756873 0.618685
vt 0.870147 0.488625
vt 0.430287 0.178421
vt 0.810613 0.390750
vt 0.646728 0.402521
vt 0.747018 0.725306
vt 0.634574 0.409514
vt 0.633710 0.556168
vt 0.734744 0.729239
vt 0.903805 0.217917
vt 0.634574 0.213985
vt 0.633710 0.707079
vt 0.647843 0.711337
vt 0.150054 0.181899
vt 0.646728 0.220978
vt 0.916079 0.213984
vt 0.810613 0.615598
vt 0.622420 0.220978
vt 0.647843 0.560426
vt 0.622420 0.402521
vt 0.368606 0.181899
vt 0.894218 0.070098
vt 0.747018 0.282448
vt 0.819543 0.604414
vt 0.854010 0.069092
vt 0.819543 0.375319
vt 0.830145 0.794397
vt 0.218552 0.065270
vt 0.866584 0.371029
vt 0.747018 0.507296
vt 0.870353 0.795403
vt 0.437104 0.065270
vt 0.866585 0.600125
vt 0.804715 0.312821
vt 0.729577 0.802376
vt 0.622420 0.478754
vt 0.716223 0.806276
vt 0.885284 0.294955
vt 0.622420 0.629665
vt 0.153201 0.102942
vt 0.637211 0.633912
vt 0.804715 0.537669
vt 0.898638 0.291055
vt 0.637211 0.483001
vt 0.371753 0.102942
vt 0.915439 0.001005
vt 0.520231 0.893896
vt 0.761846 0.213984
vt 0.875231 0.000000
vt 0.548488 0.855938
vt 0.838243 0.672175
vt 0.407307 0.000000
vt 0.595706 0.859059
vt 0.885284 0.667886
vt 0.573636 0.939424
vt 0.747018 0.871974
vt 0.819543 0.244357
vt 0.733664 0.875874
vt 0.581220 0.926853
vt 0.633052 0.409514
vt 0.341957 0.037672
vt 0.595706 0.929237
vt 0.647843 0.413761
vt 0.644184 0.948881
vt 0.851366 0.725306
vt 0.838243 0.443080
vt 0.188755 0.000000
vt 0.615926 0.910923
vt 0.885284 0.438790
vt 0.891574 0.726312
vt 0.761846 0.438832
vt 0.691401 0.945760
vt 0.902725 0.364552
vt 0.676915 0.877966
vt 0.633052 0.560426
vt 0.123405 0.037672
vt 0.669331 0.865396
vt 0.647843 0.564672
vt 0.691401 0.875583
vt 0.819543 0.469205
vt 0.916079 0.360653
s 1
f 2/4/1 3/6/1 1/1/1
f 4/9/2 5/12/2 3/5/2
f 6/15/3 7/17/3 5/11/3
f 8/19/4 9/22/4 7/17/4
f 2/3/5 10/25/5 6/16/5
f 10/26/6 11/27/6 9/21/6
f 12/30/7 1/1/7 11/27/7
f 3/7/8 7/18/8 11/28/8
f 14/33/9 15/35/9 13/31/9
f 16/36/10 17/38/10 15/35/10
f 18/40/11 19/42/11 17/37/11
f 20/44/12 21/45/12 19/41/12
f 14/33/9 32/69/9 16/36/9
f 22/46/13 23/48/13 21/45/13
f 24/50/14 13/32/14 23/47/14
f 21/45/12 28/59/12 19/41/12
f 26/54/8 28/60/8 30/64/8
f 17/38/10 26/55/10 15/35/10
f 23/48/13 29/63/13 21/45/13
f 15/35/9 25/52/9 13/31/9
f 19/42/11 27/58/11 17/37/11
f 13/32/14 30/66/14 23/47/14
f 35/74/13 42/85/13 36/75/13
f 18/40/11 34/72/11 20/43/11
f 24/50/14 31/67/14 14/34/14
f 20/44/12 35/74/12 22/46/12
f 16/36/10 33/70/10 18/39/10
f 22/46/13 36/75/13 24/49/13
f 40/83/12 47/94/12 41/84/12
f 33/71/11 40/82/11 34/72/11
f 31/68/9 38/79/9 32/69/9
f 36/76/14 37/77/14 31/67/14
f 34/73/12 41/84/12 35/74/12
f 32/69/10 39/80/10 33/70/10
f 45/91/11 52/102/11 46/92/11
f 38/79/10 45/90/10 39/80/10
f 41/84/13 48/95/13 42/85/13
f 39/81/11 46/92/11 40/82/11
f 37/78/9 44/89/9 38/79/9
f 42/86/14 43/88/14 37/77/14
f 50/99/10 57/110/10 51/100/10
f 44/89/9 49/98/9 50/99/9
f 43/88/14 54/106/14 49/97/14
f 46/93/12 53/104/12 47/94/12
f 44/89/10 51/100/10 45/90/10
f 47/94/13 54/105/13 48/95/13
f 56/109/9 61/118/9 62/119/9
f 53/104/13 60/115/13 54/105/13
f 51/101/11 58/112/11 52/102/11
f 49/98/9 56/109/9 50/99/9
f 54/106/14 55/108/14 49/97/14
f 52/103/12 59/114/12 53/104/12
f 65/124/13 72/135/13 66/125/13
f 55/108/14 66/126/14 61/117/14
f 58/113/12 65/124/12 59/114/12
f 56/109/10 63/120/10 57/110/10
f 59/114/13 66/125/13 60/115/13
f 57/111/11 64/122/11 58/112/11
f 72/136/14 73/137/14 67/127/14
f 63/121/11 70/132/11 64/122/11
f 61/118/9 68/129/9 62/119/9
f 66/126/14 67/127/14 61/117/14
f 64/123/12 71/134/12 65/124/12
f 62/119/10 69/130/10 63/120/10
f 77/144/13 84/155/13 78/145/13
f 70/133/12 77/144/12 71/134/12
f 68/129/10 75/140/10 69/130/10
f 71/134/13 78/145/13 72/135/13
f 69/131/11 76/142/11 70/132/11
f 67/128/9 74/139/9 68/129/9
f 84/156/14 85/157/14 79/147/14
f 75/141/11 82/152/11 76/142/11
f 73/138/9 80/149/9 74/139/9
f 78/146/14 79/147/14 73/137/14
f 76/143/12 83/154/12 77/144/12
f 74/139/10 81/150/10 75/140/10
f 89/169/15 96/182/15 90/172/15
f 82/153/12 89/169/12 83/154/12
f 80/149/10 87/163/10 81/150/10
f 83/154/13 90/172/13 84/155/13
f 81/151/11 88/166/11 82/152/11
f 79/148/9 86/161/9 80/149/9
f 94/178/5 93/176/5 91/173/5
f 85/159/16 97/183/17 86/160/18
f 91/173/19 108/209/20 96/181/21
f 88/167/22 101/193/23 89/168/24
f 87/163/25 106/204/26 100/190/27
f 86/161/28 93/177/28 87/163/28
f 98/186/29 109/212/30 97/183/31
f 100/190/32 118/237/33 112/220/34
f 98/187/35 114/225/36 110/215/37
f 97/184/38 115/227/39 103/199/40
f 94/178/41 106/205/42 93/176/43
f 89/169/44 107/207/45 95/179/46
f 94/178/47 107/208/48 105/203/49
f 85/159/50 102/197/51 98/186/52
f 91/173/53 103/201/54 104/202/55
f 90/172/56 108/210/57 102/198/58
f 88/167/59 100/191/60 99/189/61
f 86/161/62 103/200/63 92/174/64
f 112/220/65 130/263/66 124/251/67
f 110/215/68 126/256/69 122/247/70
f 109/213/71 127/257/72 115/227/73
f 117/233/74 131/266/75 129/261/76
f 104/202/77 120/243/78 108/209/79
f 104/202/80 115/228/81 116/230/82
f 99/188/83 112/221/84 111/218/85
f 101/195/86 119/240/87 107/206/88
f 105/203/89 118/238/90 106/205/91
f 99/189/92 113/223/93 101/193/94
f 102/198/95 120/244/96 114/226/97
f 105/203/98 119/241/99 117/234/100
f 125/253/101 144/303/101 131/265/101
f 126/255/102 138/284/102 135/275/102
f 121/245/103 134/272/103 133/269/103
f 124/251/104 143/299/104 140/290/104
f 110/216/105 121/245/106 109/211/107
f 116/231/108 132/267/109 120/242/110
f 116/232/111 127/258/112 128/260/113
f 111/218/114 124/252/115 123/249/116
f 113/224/117 131/265/118 119/240/119
f 117/235/120 130/264/121 118/236/122
f 111/219/123 125/254/124 113/222/125
f 114/226/126 132/268/127 126/255/128
f 133/270/129 137/282/130 136/278/131
f 135/276/132 137/282/133 134/273/134
f 128/259/135 138/286/135 132/267/135
f 126/256/136 134/274/136 122/247/136
f 128/260/137 136/279/137 137/281/137
f 121/246/138 136/280/138 127/257/138
f 140/291/139 142/297/140 139/287/141
f 141/295/142 142/297/143 144/302/144
f 129/261/145 144/304/145 142/296/145
f 125/254/146 139/288/146 141/293/146
f 129/262/147 143/301/147 130/264/147
f 124/252/148 139/289/148 123/249/148
f 2/4/1 4/8/1 3/6/1
f 4/9/2 6/14/2 5/12/2
f 6/15/3 8/19/3 7/17/3
f 8/19/4 10/24/4 9/22/4
f 6/16/5 4/10/5 2/3/5
f 2/3/5 12/29/5 10/25/5
f 10/25/5 8/20/5 6/16/5
f 10/26/6 12/30/6 11/27/6
f 12/30/7 2/4/7 1/1/7
f 11/28/8 1/2/8 3/7/8
f 3/7/8 5/13/8 7/18/8
f 7/18/8 9/23/8 11/28/8
f 14/33/9 16/36/9 15/35/9
f 16/36/10 18/39/10 17/38/10
f 18/40/11 20/43/11 19/42/11
f 20/44/12 22/46/12 21/45/12
f 14/33/9 31/68/9 32/69/9
f 22/46/13 24/49/13 23/48/13
f 24/50/14 14/34/14 13/32/14
f 21/45/12 29/63/12 28/59/12
f 30/64/8 25/51/8 26/54/8
f 26/54/8 27/56/8 28/60/8
f 28/60/8 29/62/8 30/64/8
f 17/38/10 27/57/10 26/55/10
f 23/48/13 30/65/13 29/63/13
f 15/35/9 26/55/9 25/52/9
f 19/42/11 28/61/11 27/58/11
f 13/32/14 25/53/14 30/66/14
f 35/74/13 41/84/13 42/85/13
f 18/40/11 33/71/11 34/72/11
f 24/50/14 36/76/14 31/67/14
f 20/44/12 34/73/12 35/74/12
f 16/36/10 32/69/10 33/70/10
f 22/46/13 35/74/13 36/75/13
f 40/83/12 46/93/12 47/94/12
f 33/71/11 39/81/11 40/82/11
f 31/68/9 37/78/9 38/79/9
f 36/76/14 42/86/14 37/77/14
f 34/73/12 40/83/12 41/84/12
f 32/69/10 38/79/10 39/80/10
f 45/91/11 51/101/11 52/102/11
f 38/79/10 44/89/10 45/90/10
f 41/84/13 47/94/13 48/95/13
f 39/81/11 45/91/11 46/92/11
f 37/78/9 43/87/9 44/89/9
f 42/86/14 48/96/14 43/88/14
f 50/99/10 56/109/10 57/110/10
f 44/89/9 43/87/9 49/98/9
f 43/88/14 48/96/14 54/106/14
f 46/93/12 52/103/12 53/104/12
f 44/89/10 50/99/10 51/100/10
f 47/94/13 53/104/13 54/105/13
f 56/109/9 55/107/9 61/118/9
f 53/104/13 59/114/13 60/115/13
f 51/101/11 57/111/11 58/112/11
f 49/98/9 55/107/9 56/109/9
f 54/106/14 60/116/14 55/108/14
f 52/103/12 58/113/12 59/114/12
f 65/124/13 71/134/13 72/135/13
f 55/108/14 60/116/14 66/126/14
f 58/113/12 64/123/12 65/124/12
f 56/109/10 62/119/10 63/120/10
f 59/114/13 65/124/13 66/125/13
f 57/111/11 63/121/11 64/122/11
f 72/136/14 78/146/14 73/137/14
f 63/121/11 69/131/11 70/132/11
f 61/118/9 67/128/9 68/129/9
f 66/126/14 72/136/14 67/127/14
f 64/123/12 70/133/12 71/134/12
f 62/119/10 68/129/10 69/130/10
f 77/144/13 83/154/13 84/155/13
f 70/133/12 76/143/12 77/144/12
f 68/129/10 74/139/10 75/140/10
f 71/134/13 77/144/13 78/145/13
f 69/131/11 75/141/11 76/142/11
f 67/128/9 73/138/9 74/139/9
f 84/156/14 90/170/14 85/157/14
f 75/141/11 81/151/11 82/152/11
f 73/138/9 79/148/9 80/149/9
f 78/146/14 84/156/14 79/147/14
f 76/143/12 82/153/12 83/154/12
f 74/139/10 80/149/10 81/150/10
f 89/169/15 95/179/15 96/182/15
f 82/153/12 88/165/12 89/169/12
f 80/149/10 86/161/10 87/163/10
f 83/154/13 89/169/13 90/172/13
f 81/151/11 87/162/11 88/166/11
f 79/148/9 85/158/9 86/161/9
f 93/176/5 92/175/5 91/173/5
f 91/173/5 96/181/5 95/180/5
f 95/180/5 94/178/5 91/173/5
f 85/159/16 98/186/149 97/183/17
f 91/173/19 104/202/150 108/209/20
f 88/167/22 99/189/151 101/193/23
f 87/163/25 93/177/152 106/204/26
f 86/161/28 92/174/28 93/177/28
f 98/186/29 110/214/153 109/212/30
f 100/190/32 106/204/154 118/237/33
f 98/187/35 102/196/155 114/225/36
f 97/184/38 109/213/156 115/227/39
f 94/178/41 105/203/157 106/205/42
f 89/169/44 101/194/158 107/207/45
f 94/178/47 95/180/159 107/208/48
f 85/159/50 90/171/160 102/197/51
f 91/173/53 92/175/161 103/201/54
f 90/172/56 96/182/162 108/210/57
f 88/167/59 87/164/163 100/191/60
f 86/161/62 97/185/164 103/200/63
f 112/220/65 118/237/165 130/263/66
f 110/215/68 114/225/166 126/256/69
f 109/213/71 121/246/167 127/257/72
f 117/233/74 119/239/168 131/266/75
f 104/202/77 116/230/169 120/243/78
f 104/202/80 103/201/170 115/228/81
f 99/188/83 100/192/171 112/221/84
f 101/195/86 113/224/172 119/240/87
f 105/203/89 117/234/173 118/238/90
f 99/189/92 111/217/174 113/223/93
f 102/198/95 108/210/175 120/244/96
f 105/203/98 107/208/176 119/241/99
f 125/253/101 141/294/101 144/303/101
f 126/255/102 132/268/102 138/284/102
f 121/245/103 122/248/103 134/272/103
f 124/251/104 130/263/104 143/299/104
f 110/216/105 122/248/177 121/245/106
f 116/231/108 128/259/178 132/267/109
f 116/232/111 115/229/179 127/258/112
f 111/218/114 112/221/180 124/252/115
f 113/224/117 125/253/181 131/265/118
f 117/235/120 129/262/182 130/264/121
f 111/219/123 123/250/183 125/254/124
f 114/226/126 120/244/184 132/268/127
f 133/270/129 134/273/185 137/282/130
f 135/276/132 138/285/186 137/282/133
f 128/259/135 137/283/135 138/286/135
f 126/256/136 135/277/136 134/274/136
f 128/260/137 127/258/137 136/279/137
f 121/246/138 133/271/138 136/280/138
f 140/291/139 143/300/187 142/297/140
f 141/295/142 139/287/188 142/297/143
f 129/261/145 131/266/145 144/304/145
f 125/254/146 123/250/146 139/288/146
f 129/262/147 142/298/147 143/301/147
f 124/252/148 140/292/148 139/289/148
