# Blender 3.3.1
# www.blender.org
o Cylinder
v 0.000000 -1.144325 -1.000000
v 0.000000 0.855675 -1.000000
v 0.866025 -1.144325 -0.500000
v 0.866025 0.855675 -0.500000
v 0.866025 -1.144325 0.500000
v 0.866025 0.855675 0.500000
v 0.000000 -1.144325 1.000000
v 0.000000 0.855675 1.000000
v -0.866025 -1.144325 0.500000
v -0.866025 0.855675 0.500000
v -0.866025 -1.144325 -0.500000
v -0.866025 0.855675 -0.500000
v -0.003480 0.922362 -0.201081
v -0.003480 1.138102 -0.201081
v 0.169080 0.922362 -0.105396
v 0.169080 1.138102 -0.105396
v 0.172494 0.922362 0.091888
v 0.172494 1.138102 0.091888
v 0.003348 0.922362 0.193486
v 0.003348 1.138102 0.193486
v -0.169211 0.922362 0.097801
v -0.169211 1.138102 0.097801
v -0.172626 0.922362 -0.099483
v -0.172626 1.138102 -0.099483
v -0.003480 0.807057 -0.201081
v 0.169080 0.807057 -0.105396
v 0.172494 0.807057 0.091888
v 0.003348 0.807057 0.193486
v -0.169211 0.807057 0.097801
v -0.172626 0.807057 -0.099483
v -0.003480 1.258683 -0.201081
v 0.169080 1.258683 -0.105396
v 0.172494 1.258683 0.091888
v 0.003348 1.258683 0.193486
v -0.169211 1.258683 0.097801
v -0.172626 1.258683 -0.099483
v -0.003480 1.359421 -0.201081
v 0.169080 1.359421 -0.105396
v 0.172494 1.359421 0.091888
v 0.003348 1.359421 0.193486
v -0.169211 1.359421 0.097801
v -0.172626 1.359421 -0.099483
v -0.003480 1.458634 -0.201081
v 0.169080 1.458634 -0.105396
v 0.172494 1.458634 0.091888
v 0.003348 1.458634 0.193486
v -0.169211 1.458634 0.097801
v -0.172626 1.458634 -0.099483
v -0.003480 1.562425 -0.201081
v 0.169080 1.562425 -0.105396
v 0.172494 1.562425 0.091888
v 0.003348 1.562425 0.193486
v -0.169211 1.562425 0.097801
v -0.172626 1.562425 -0.099483
v -0.003480 3.028924 -0.201081
v 0.169080 3.028924 -0.105396
v 0.172494 3.028924 0.091888
v 0.003348 3.028924 0.193486
v -0.169211 3.028924 0.097801
v -0.172625 3.028924 -0.099483
v -0.003480 3.154933 -0.201081
v 0.169080 3.154933 -0.105396
v 0.172494 3.154933 0.091888
v 0.003348 3.154933 0.193486
v -0.169211 3.154933 0.097801
v -0.172625 3.154933 -0.099483
v -0.003480 3.257315 -0.201081
v 0.169080 3.257315 -0.105396
v 0.172494 3.257315 0.091888
v 0.003348 3.257315 0.193486
v -0.169211 3.257315 0.097801
v -0.172625 3.257315 -0.099483
v -0.003480 3.375449 -0.201081
v 0.169080 3.375449 -0.105396
v 0.172494 3.375449 0.091888
v 0.003348 3.375449 0.193486
v -0.169211 3.375449 0.097801
v -0.172625 3.375449 -0.099483
v -0.003480 3.493583 -0.201081
v 0.169080 3.493583 -0.105396
v 0.172494 3.493583 0.091888
v 0.003348 3.493583 0.193486
v -0.169211 3.493583 0.097801
v -0.172625 3.493583 -0.099483
v -0.003480 3.788985 -0.201081
v 0.169080 3.788985 -0.105396
v 0.172494 3.788985 0.091888
v 0.003348 3.788985 0.193486
v -0.169211 3.788985 0.097801
v -0.172625 3.788985 -0.099483
v -0.001064 3.970973 -0.061486
v 0.049395 3.970973 -0.033506
v 0.050394 3.970973 0.024182
v 0.000933 3.970973 0.053891
v -0.049527 3.970973 0.025912
v -0.050525 3.970973 -0.031777
v 0.163059 3.923131 -0.453337
v -0.008819 3.923131 -0.509592
v 0.008687 3.923131 0.501998
v 0.178515 3.923131 0.439828
v -0.163190 3.923131 0.445742
v -0.178647 3.923131 -0.447423
v 0.044724 4.047882 -0.303428
v -0.005634 4.105120 -0.325580
v 0.005503 4.105120 0.317985
v 0.055065 4.047882 0.294104
v -0.044855 4.047882 0.295833
v -0.055196 4.047882 -0.301699
v 0.160481 4.104765 -0.602294
v -0.011738 4.104765 -0.678300
v 0.011607 4.104765 0.670705
v 0.181093 4.104765 0.588785
v -0.160612 4.104765 0.594699
v -0.181224 4.104765 -0.596380
v 0.043437 4.125725 -0.377792
v -0.007020 4.144804 -0.405673
v 0.006889 4.144804 0.398078
v 0.056352 4.125725 0.368468
v -0.043569 4.125725 0.370197
v -0.056483 4.125725 -0.376063
v 0.158650 4.560528 -0.708088
v -0.013812 4.560528 -0.798121
v 0.013680 4.560528 0.790526
v 0.182924 4.560528 0.694580
v -0.158782 4.560528 0.700493
v -0.183055 4.560528 -0.702174
v 0.042290 4.444759 -0.444077
v -0.008256 4.463839 -0.477064
v 0.008124 4.463839 0.469469
v 0.057499 4.444759 0.434752
v -0.042421 4.444759 0.436482
v -0.057630 4.444759 -0.442347
v 0.160328 4.844421 -0.611123
v -0.012134 4.844421 -0.701156
v -0.181377 4.844421 -0.605209
v 0.043968 4.728652 -0.347111
v -0.006578 4.747731 -0.380099
v -0.055952 4.728652 -0.345382
v 0.012002 4.844421 0.693561
v 0.181246 4.844421 0.597614
v -0.160460 4.844421 0.603528
v 0.006446 4.747731 0.372504
v 0.055821 4.728652 0.337787
v -0.044099 4.728652 0.339517
vn 0.5000 -0.0000 -0.8660
vn 1.0000 -0.0000 -0.0000
vn 0.5000 -0.0000 0.8660
vn -0.5000 -0.0000 0.8660
vn -0.0000 1.0000 -0.0000
vn -1.0000 -0.0000 -0.0000
vn -0.5000 -0.0000 -0.8660
vn -0.0000 -1.0000 -0.0000
vn 0.4849 -0.0000 -0.8745
vn 0.9999 -0.0000 -0.0173
vn 0.5149 -0.0000 0.8572
vn -0.4849 -0.0000 0.8745
vn -0.9999 -0.0000 0.0173
vn -0.5149 -0.0000 -0.8572
vn -0.8328 0.5534 0.0144
vn 0.1793 -0.9128 -0.3670
vn 0.1500 -0.9106 -0.3852
vn 0.1972 -0.9136 -0.3556
vn 0.0704 0.9545 0.2898
vn -0.5688 0.7374 0.3643
vn 0.1609 0.9499 0.2679
vn -0.1793 -0.9128 0.3670
vn -0.1500 -0.9106 0.3852
vn -0.1972 -0.9136 0.3556
vn 0.8323 0.5224 -0.1855
vn 0.8234 0.5306 -0.2011
vn 0.8105 0.5417 -0.2229
vn 0.8328 0.5534 -0.0144
vn 0.2723 -0.6265 -0.7303
vn 0.2840 -0.6325 -0.7206
vn 0.2459 -0.6126 -0.7512
vn 0.8333 0.3525 -0.4259
vn 0.8361 0.3576 -0.4160
vn 0.8300 0.3466 -0.4370
vn -0.2974 -0.6265 -0.7204
vn -0.3088 -0.6325 -0.7103
vn -0.3327 -0.6447 -0.6883
vn 0.8475 0.3525 0.3968
vn 0.8500 0.3576 0.3868
vn 0.8540 0.3667 0.3690
vn -0.0704 0.9545 -0.2898
vn 0.5688 0.7374 -0.3643
vn -0.1609 0.9499 -0.2679
vn -0.8382 0.5224 -0.1565
vn -0.8299 0.5306 -0.1725
vn -0.8512 0.5084 -0.1301
vn 0.0603 0.9545 -0.2920
vn -0.5811 0.7374 -0.3444
vn -0.6367 0.6919 -0.3404
vn -0.1919 -0.9128 -0.3606
vn -0.1632 -0.9106 -0.3798
vn -0.1437 -0.9084 -0.3925
vn -0.0603 0.9545 0.2920
vn 0.5811 0.7374 0.3444
vn 0.6367 0.6919 0.3404
vn -0.8323 0.5224 0.1855
vn -0.8234 0.5306 0.2011
vn -0.8105 0.5417 0.2229
vn 0.1919 -0.9128 0.3606
vn 0.1632 -0.9106 0.3798
vn 0.1437 -0.9084 0.3925
vn 0.8382 0.5224 0.1565
vn 0.8299 0.5306 0.1725
vn 0.8512 0.5084 0.1301
vn 0.8727 0.1008 -0.4777
vn 0.8743 0.1029 -0.4744
vn 0.8763 0.1056 -0.4701
vn -0.4393 -0.2109 -0.8733
vn -0.4679 -0.2207 -0.8558
vn -0.4805 -0.2250 -0.8476
vn 0.8887 0.1008 0.4472
vn 0.8902 0.1029 0.4439
vn 0.8862 0.0973 0.4529
vn 0.4277 0.1836 -0.8851
vn 0.4798 0.1886 -0.8568
vn 0.4856 0.1891 -0.8535
vn -0.3074 0.7317 0.6083
vn -0.2038 0.8173 0.5389
vn -0.4051 0.6280 0.6644
vn 0.3283 0.7317 0.5973
vn 0.2223 0.8173 0.5315
vn 0.0940 0.8927 0.4407
vn 0.2974 -0.6265 0.7204
vn 0.3088 -0.6325 0.7103
vn 0.3327 -0.6447 0.6883
vn -0.8475 0.3525 -0.3968
vn -0.8500 0.3576 -0.3868
vn -0.8540 0.3667 -0.3690
vn 0.3074 0.7317 -0.6083
vn 0.2038 0.8173 -0.5389
vn 0.4051 0.6280 -0.6644
vn -0.2723 -0.6265 0.7303
vn -0.2840 -0.6325 0.7206
vn -0.2459 -0.6126 0.7512
vn -0.8333 0.3525 0.4259
vn -0.8361 0.3576 0.4160
vn -0.8300 0.3466 0.4370
vn -0.3283 0.7317 -0.5973
vn -0.2223 0.8173 -0.5315
vn -0.0940 0.8927 -0.4407
vn -0.9270 -0.1261 -0.3532
vn -0.9270 -0.1261 -0.3533
vn -0.9142 -0.1261 0.3851
vn 0.4433 0.2874 -0.8491
vn 0.9142 -0.1261 -0.3851
vn 0.4088 -0.2109 -0.8879
vn 0.4380 -0.2207 -0.8715
vn 0.3951 -0.2062 -0.8952
vn 0.4581 0.1836 0.8697
vn 0.5092 0.1886 0.8397
vn 0.4520 0.1830 0.8730
vn -0.4277 0.1836 0.8851
vn -0.4799 0.1886 0.8568
vn -0.4856 0.1891 0.8535
vn 0.4393 -0.2109 0.8733
vn 0.4679 -0.2207 0.8558
vn 0.4805 -0.2250 0.8476
vn -0.8887 0.1008 -0.4472
vn -0.8902 0.1029 -0.4439
vn -0.8862 0.0973 -0.4529
vn -0.4581 0.1836 -0.8697
vn -0.5092 0.1886 -0.8397
vn -0.4520 0.1830 -0.8730
vn -0.4088 -0.2109 0.8879
vn -0.4380 -0.2207 0.8715
vn -0.3951 -0.2062 0.8952
vn -0.8727 0.1008 0.4777
vn -0.8743 0.1029 0.4744
vn -0.8763 0.1056 0.4701
vn -0.1238 0.9441 0.3057
vn 0.0055 0.9210 0.3894
vn 0.0640 0.9033 0.4243
vn 0.1343 0.9441 0.3012
vn 0.0080 0.9210 0.3894
vn 0.1599 0.9460 0.2821
vn 0.6203 -0.2568 0.7411
vn -0.4724 0.2874 -0.8332
vn -0.5943 -0.2568 0.7621
vn 0.9270 -0.1261 0.3532
vn 0.9270 -0.1261 0.3533
vn -0.1343 0.9441 -0.3012
vn -0.0080 0.9210 -0.3894
vn -0.1599 0.9460 -0.2821
vn 0.1238 0.9441 -0.3057
vn -0.0055 0.9210 -0.3894
vn -0.0640 0.9033 -0.4243
vn 0.5943 -0.2568 -0.7621
vn -0.4433 0.2874 0.8491
vn -0.6203 -0.2568 -0.7411
vn 0.4724 0.2874 0.8332
vn 0.1300 -0.9084 -0.3973
vn -0.6245 0.6919 0.3623
vn -0.1300 -0.9084 0.3973
vn 0.8462 0.5084 -0.1595
vn 0.3087 -0.6447 -0.6994
vn 0.8408 0.3667 -0.3984
vn -0.2717 -0.6126 -0.7422
vn 0.8446 0.3466 0.4080
vn 0.6245 0.6919 -0.3623
vn -0.8177 0.5417 -0.1947
vn 0.1515 0.9499 -0.2733
vn -0.2094 -0.9136 -0.3486
vn -0.1515 0.9499 0.2733
vn -0.8462 0.5084 0.1595
vn 0.2094 -0.9136 0.3486
vn 0.8177 0.5417 0.1947
vn 0.8700 0.0973 -0.4833
vn -0.4258 -0.2062 -0.8810
vn 0.8920 0.1056 0.4395
vn 0.4216 0.1830 -0.8881
vn -0.0787 0.8927 0.4437
vn 0.4279 0.6280 0.6500
vn 0.2717 -0.6126 0.7422
vn -0.8446 0.3466 -0.4080
vn 0.0787 0.8927 -0.4437
vn -0.3087 -0.6447 0.6994
vn -0.8408 0.3667 0.3984
vn -0.4279 0.6280 -0.6500
vn 0.4509 -0.2250 -0.8637
vn 0.5149 0.1891 0.8362
vn -0.4216 0.1830 0.8881
vn 0.4258 -0.2062 0.8810
vn -0.8920 0.1056 -0.4395
vn -0.5149 0.1891 -0.8362
vn -0.4509 -0.2250 0.8637
vn -0.8700 0.0973 0.4833
vn -0.1501 0.9460 0.2875
vn -0.0493 0.9033 0.4263
vn 0.0493 0.9033 -0.4263
vn 0.1501 0.9460 -0.2875
vt 0.490600 0.000000
vt 0.437104 0.481465
vt 0.437104 0.267481
vt 0.490600 0.213985
vt 0.854010 0.000000
vt 0.437104 0.000000
vt 0.529762 0.427969
vt 0.437104 0.213985
vt 0.854010 0.213985
vt 0.437104 0.374473
vt 0.597592 0.641954
vt 0.747018 0.000000
vt 0.622420 0.481465
vt 0.747018 0.213985
vt 0.597592 0.855939
vt 0.529762 0.427969
vt 0.544096 0.641954
vt 0.622420 0.588458
vt 0.544096 0.855939
vt 0.622420 0.374473
vt 0.651088 0.000000
vt 0.437104 0.641954
vt 0.529762 0.641954
vt 0.437104 0.855939
vt 0.622420 0.267481
vt 0.651088 0.213985
vt 0.597592 0.000000
vt 0.437104 0.588458
vt 0.529762 0.213985
vt 0.597592 0.213985
vt 0.132350 0.972230
vt 0.651088 0.028056
vt 0.125109 0.920271
vt 0.651088 0.080531
vt 0.173444 0.967081
vt 0.166203 0.915122
vt 0.699053 0.697260
vt 0.214682 0.960769
vt 0.207441 0.908810
vt 0.699053 0.644785
vt 0.350902 0.972230
vt 0.747018 0.697249
vt 0.747018 0.644775
vt 0.343661 0.920271
vt 0.391996 0.967081
vt 0.384755 0.915122
vt 0.699053 0.028046
vt 0.433234 0.960769
vt 0.425993 0.908810
vt 0.699053 0.080520
vt 0.478667 0.951925
vt 0.136220 1.000000
vt 0.651089 0.000010
vt 0.437104 0.927929
vt 0.177314 0.994851
vt 0.437104 0.879935
vt 0.218552 0.988539
vt 0.699053 0.725306
vt 0.354772 1.000000
vt 0.478667 0.855938
vt 0.747018 0.725295
vt 0.520231 0.879935
vt 0.395866 0.994851
vt 0.520231 0.927929
vt 0.437104 0.988539
vt 0.699053 0.000000
vt 0.651088 0.109859
vt 0.121062 0.891231
vt 0.162156 0.886081
vt 0.203394 0.879769
vt 0.699053 0.615456
vt 0.747018 0.615446
vt 0.339614 0.891231
vt 0.380708 0.886081
vt 0.421946 0.879769
vt 0.699053 0.109849
vt 0.651088 0.134362
vt 0.117681 0.866969
vt 0.158775 0.861819
vt 0.200013 0.855507
vt 0.699053 0.590954
vt 0.747018 0.590943
vt 0.336233 0.866969
vt 0.377327 0.861819
vt 0.418565 0.855507
vt 0.699053 0.134352
vt 0.114351 0.843074
vt 0.651088 0.158493
vt 0.155445 0.837925
vt 0.196683 0.831613
vt 0.699053 0.566822
vt 0.747018 0.566812
vt 0.332903 0.843074
vt 0.373997 0.837925
vt 0.415235 0.831613
vt 0.699053 0.158483
vt 0.651088 0.183739
vt 0.110868 0.818078
vt 0.151962 0.812928
vt 0.193199 0.806616
vt 0.699053 0.541577
vt 0.747018 0.541567
vt 0.329420 0.818077
vt 0.370514 0.812928
vt 0.411751 0.806616
vt 0.699053 0.183728
vt 0.061647 0.464886
vt 0.651088 0.540436
vt 0.102741 0.459737
vt 0.143979 0.453424
vt 0.699053 0.184880
vt 0.747018 0.184870
vt 0.280199 0.464886
vt 0.321293 0.459737
vt 0.362531 0.453424
vt 0.699053 0.540425
vt 0.651088 0.571085
vt 0.057418 0.434538
vt 0.098512 0.429389
vt 0.139750 0.423077
vt 0.699053 0.154231
vt 0.747018 0.154221
vt 0.275970 0.434538
vt 0.317064 0.429389
vt 0.358302 0.423077
vt 0.699053 0.571075
vt 0.651088 0.595987
vt 0.053982 0.409881
vt 0.095076 0.404731
vt 0.136313 0.398419
vt 0.699053 0.129328
vt 0.747018 0.129318
vt 0.272534 0.409880
vt 0.313628 0.404731
vt 0.354865 0.398418
vt 0.699053 0.595977
vt 0.651088 0.624721
vt 0.050017 0.381429
vt 0.091111 0.376280
vt 0.132348 0.369967
vt 0.699053 0.100595
vt 0.747018 0.100585
vt 0.268569 0.381429
vt 0.309663 0.376280
vt 0.350900 0.369967
vt 0.699053 0.624711
vt 0.651088 0.653455
vt 0.046052 0.352978
vt 0.087146 0.347829
vt 0.128383 0.341516
vt 0.699053 0.071861
vt 0.747018 0.071851
vt 0.264604 0.352978
vt 0.305698 0.347829
vt 0.346935 0.341516
vt 0.699053 0.653444
vt 0.651088 0.725305
vt 0.036137 0.281833
vt 0.788582 0.749302
vt 0.747018 0.725305
vt 0.077231 0.276684
vt 0.699053 0.000010
vt 0.118469 0.270371
vt 0.615926 0.865396
vt 0.254689 0.281833
vt 0.747018 0.000000
vt 0.657490 0.841399
vt 0.699053 0.865396
vt 0.295783 0.276684
vt 0.699053 0.725295
vt 0.830145 0.725305
vt 0.337021 0.270371
vt 0.634574 0.325784
vt 0.071225 0.232031
vt 0.646728 0.318767
vt 0.646728 0.304733
vt 0.083283 0.230186
vt 0.634574 0.297715
vt 0.289777 0.232031
vt 0.622420 0.304733
vt 0.622420 0.318767
vt 0.301835 0.230186
vt 0.747018 0.809950
vt 0.774549 0.438832
vt 0.000000 0.255508
vt 0.788582 0.824354
vt 0.842581 0.447019
vt 0.842581 0.217923
vt 0.657490 0.766347
vt 0.186695 0.226932
vt 0.615926 0.780752
vt 0.885284 0.213984
vt 0.699053 0.780752
vt 0.218552 0.255508
vt 0.774549 0.663680
vt 0.885284 0.443080
vt 0.830145 0.809950
vt 0.405247 0.226932
vt 0.819543 0.410092
vt 0.012223 0.222144
vt 0.646728 0.384431
vt 0.634574 0.390030
vt 0.634574 0.233469
vt 0.137123 0.203026
vt 0.646728 0.239068
vt 0.819543 0.634940
vt 0.230774 0.222144
vt 0.622420 0.239068
vt 0.622420 0.384431
vt 0.355675 0.203026
vt 0.915439 0.180850
vt 0.747018 0.846186
vt 0.756873 0.393837
vt 0.788582 0.865396
vt 0.824908 0.492769
vt 0.878197 0.179835
vt 0.657490 0.725305
vt 0.824908 0.263673
vt 0.854332 0.905141
vt 0.211735 0.178421
vt 0.870147 0.259530
vt 0.891574 0.906156
vt 0.699053 0.744515
vt 0.756873 0.618685
vt 0.870147 0.488625
vt 0.430287 0.178421
vt 0.810613 0.390750
vt 0.646728 0.402521
vt 0.747018 0.725306
vt 0.634574 0.409514
vt 0.633710 0.556168
vt 0.734744 0.729239
vt 0.903805 0.217917
vt 0.634574 0.213985
vt 0.633710 0.707079
vt 0.647843 0.711337
vt 0.150054 0.181899
vt 0.646728 0.220978
vt 0.916079 0.213984
vt 0.810613 0.615598
vt 0.622420 0.220978
vt 0.647843 0.560426
vt 0.622420 0.402521
vt 0.368606 0.181899
vt 0.894218 0.070098
vt 0.747018 0.282448
vt 0.819543 0.604414
vt 0.854010 0.069092
vt 0.819543 0.375319
vt 0.830145 0.794397
vt 0.218552 0.065270
vt 0.866584 0.371029
vt 0.747018 0.507296
vt 0.870353 0.795403
vt 0.437104 0.065270
vt 0.866585 0.600125
vt 0.804715 0.312821
vt 0.729577 0.802376
vt 0.622420 0.478754
vt 0.716223 0.806276
vt 0.885284 0.294955
vt 0.622420 0.629665
vt 0.153201 0.102942
vt 0.637211 0.633912
vt 0.804715 0.537669
vt 0.898638 0.291055
vt 0.637211 0.483001
vt 0.371753 0.102942
vt 0.915439 0.001005
vt 0.520231 0.893896
vt 0.761846 0.213984
vt 0.875231 0.000000
vt 0.548488 0.855938
vt 0.838243 0.672175
vt 0.407307 0.000000
vt 0.595706 0.859059
vt 0.885284 0.667886
vt 0.573636 0.939424
vt 0.747018 0.871974
vt 0.819543 0.244357
vt 0.733664 0.875874
vt 0.581220 0.926853
vt 0.633052 0.409514
vt 0.341957 0.037672
vt 0.595706 0.929237
vt 0.647843 0.413761
vt 0.644184 0.948881
vt 0.851366 0.725306
vt 0.838243 0.443080
vt 0.188755 0.000000
vt 0.615926 0.910923
vt 0.885284 0.438790
vt 0.891574 0.726312
vt 0.761846 0.438832
vt 0.691401 0.945760
vt 0.902725 0.364552
vt 0.676915 0.877966
vt 0.633052 0.560426
vt 0.123405 0.037672
vt 0.669331 0.865396
vt 0.647843 0.564672
vt 0.691401 0.875583
vt 0.819543 0.469205
vt 0.916079 0.360653
s 1
f 2/4/1 3/6/1 1/1/1
f 4/9/2 5/12/2 3/5/2
f 6/15/3 7/17/3 5/11/3
f 8/19/4 9/22/4 7/17/4
f 2/3/5 10/25/5 6/16/5
f 10/26/6 11/27/6 9/21/6
f 12/30/7 1/1/7 11/27/7
f 3/7/8 7/18/8 11/28/8
f 14/33/9 15/35/9 13/31/9
f 16/36/10 17/38/10 15/35/10
f 18/40/11 19/42/11 17/37/11
f 20/44/12 21/45/12 19/41/12
f 14/33/9 32/69/9 16/36/9
f 22/46/13 23/48/13 21/45/13
f 24/50/14 13/32/14 23/47/14
f 21/45/12 28/59/12 19/41/12
f 26/54/8 28/60/8 30/64/8
f 17/38/10 26/55/10 15/35/10
f 23/48/13 29/63/13 21/45/13
f 15/35/9 25/52/9 13/31/9
f 19/42/11 27/58/11 17/37/11
f 13/32/14 30/66/14 23/47/14
f 35/74/13 42/85/13 36/75/13
f 18/40/11 34/72/11 20/43/11
f 24/50/14 31/67/14 14/34/14
f 20/44/12 35/74/12 22/46/12
f 16/36/10 33/70/10 18/39/10
f 22/46/13 36/75/13 24/49/13
f 40/83/12 47/94/12 41/84/12
f 33/71/11 40/82/11 34/72/11
f 31/68/9 38/79/9 32/69/9
f 36/76/14 37/77/14 31/67/14
f 34/73/12 41/84/12 35/74/12
f 32/69/10 39/80/10 33/70/10
f 45/91/11 52/102/11 46/92/11
f 38/79/10 45/90/10 39/80/10
f 41/84/13 48/95/13 42/85/13
f 39/81/11 46/92/11 40/82/11
f 37/78/9 44/89/9 38/79/9
f 42/86/14 43/88/14 37/77/14
f 50/99/10 57/110/10 51/100/10
f 44/89/9 49/98/9 50/99/9
f 43/88/14 54/106/14 49/97/14
f 46/93/12 53/104/12 47/94/12
f 44/89/10 51/100/10 45/90/10
f 47/94/13 54/105/13 48/95/13
f 56/109/9 61/118/9 62/119/9
f 53/104/13 60/115/13 54/105/13
f 51/101/11 58/112/11 52/102/11
f 49/98/9 56/109/9 50/99/9
f 54/106/14 55/108/14 49/97/14
f 52/103/12 59/114/12 53/104/12
f 65/124/13 72/135/13 66/125/13
f 55/108/14 66/126/14 61/117/14
f 58/113/12 65/124/12 59/114/12
f 56/109/10 63/120/10 57/110/10
f 59/114/13 66/125/13 60/115/13
f 57/111/11 64/122/11 58/112/11
f 72/136/14 73/137/14 67/127/14
f 63/121/11 70/132/11 64/122/11
f 61/118/9 68/129/9 62/119/9
f 66/126/14 67/127/14 61/117/14
f 64/123/12 71/134/12 65/124/12
f 62/119/10 69/130/10 63/120/10
f 77/144/13 84/155/13 78/145/13
f 70/133/12 77/144/12 71/134/12
f 68/129/10 75/140/10 69/130/10
f 71/134/13 78/145/13 72/135/13
f 69/131/11 76/142/11 70/132/11
f 67/128/9 74/139/9 68/129/9
f 84/156/14 85/157/14 79/147/14
f 75/141/11 82/152/11 76/142/11
f 73/138/9 80/149/9 74/139/9
f 78/146/14 79/147/14 73/137/14
f 76/143/12 83/154/12 77/144/12
f 74/139/10 81/150/10 75/140/10
f 89/169/15 96/182/15 90/172/15
f 82/153/12 89/169/12 83/154/12
f 80/149/10 87/163/10 81/150/10
f 83/154/13 90/172/13 84/155/13
f 81/151/11 88/166/11 82/152/11
f 79/148/9 86/161/9 80/149/9
f 94/178/5 93/176/5 91/173/5
f 85/159/16 97/183/17 86/160/18
f 91/173/19 108/209/20 96/181/21
f 88/167/22 101/193/23 89/168/24
f 87/163/25 106/204/26 100/190/27
f 86/161/28 93/177/28 87/163/28
f 98/186/29 109/212/30 97/183/31
f 100/190/32 118/237/33 112/220/34
f 98/187/35 114/225/36 110/215/37
f 97/184/38 115/227/39 103/199/40
f 94/178/41 106/205/42 93/176/43
f 89/169/44 107/207/45 95/179/46
f 94/178/47 107/208/48 105/203/49
f 85/159/50 102/197/51 98/186/52
f 91/173/53 103/201/54 104/202/55
f 90/172/56 108/210/57 102/198/58
f 88/167/59 100/191/60 99/189/61
f 86/161/62 103/200/63 92/174/64
f 112/220/65 130/263/66 124/251/67
f 110/215/68 126/256/69 122/247/70
f 109/213/71 127/257/72 115/227/73
f 117/233/74 131/266/75 129/261/76
f 104/202/77 120/243/78 108/209/79
f 104/202/80 115/228/81 116/230/82
f 99/188/83 112/221/84 111/218/85
f 101/195/86 119/240/87 107/206/88
f 105/203/89 118/238/90 106/205/91
f 99/189/92 113/223/93 101/193/94
f 102/198/95 120/244/96 114/226/97
f 105/203/98 119/241/99 117/234/100
f 125/253/101 144/303/101 131/265/102
f 126/255/103 138/284/103 135/275/103
f 121/245/104 134/272/104 133/269/104
f 124/251/105 143/299/105 140/290/105
f 110/216/106 121/245/107 109/211/108
f 116/231/109 132/267/110 120/242/111
f 116/232/112 127/258/113 128/260/114
f 111/218/115 124/252/116 123/249/117
f 113/224/118 131/265/119 119/240/120
f 117/235/121 130/264/122 118/236/123
f 111/219/124 125/254/125 113/222/126
f 114/226/127 132/268/128 126/255/129
f 133/270/130 137/282/131 136/278/132
f 135/276/133 137/282/134 134/273/135
f 128/259/136 138/286/136 132/267/136
f 126/256/137 134/274/137 122/247/137
f 128/260/138 136/279/138 137/281/138
f 121/246/139 136/280/139 127/257/140
f 140/291/141 142/297/142 139/287/143
f 141/295/144 142/297/145 144/302/146
f 129/261/147 144/304/147 142/296/147
f 125/254/148 139/288/148 141/293/148
f 129/262/149 143/301/149 130/264/149
f 124/252/150 139/289/150 123/249/150
f 2/4/1 4/8/1 3/6/1
f 4/9/2 6/14/2 5/12/2
f 6/15/3 8/19/3 7/17/3
f 8/19/4 10/24/4 9/22/4
f 6/16/5 4/10/5 2/3/5
f 2/3/5 12/29/5 10/25/5
f 10/25/5 8/20/5 6/16/5
f 10/26/6 12/30/6 11/27/6
f 12/30/7 2/4/7 1/1/7
f 11/28/8 1/2/8 3/7/8
f 3/7/8 5/13/8 7/18/8
f 7/18/8 9/23/8 11/28/8
f 14/33/9 16/36/9 15/35/9
f 16/36/10 18/39/10 17/38/10
f 18/40/11 20/43/11 19/42/11
f 20/44/12 22/46/12 21/45/12
f 14/33/9 31/68/9 32/69/9
f 22/46/13 24/49/13 23/48/13
f 24/50/14 14/34/14 13/32/14
f 21/45/12 29/63/12 28/59/12
f 30/64/8 25/51/8 26/54/8
f 26/54/8 27/56/8 28/60/8
f 28/60/8 29/62/8 30/64/8
f 17/38/10 27/57/10 26/55/10
f 23/48/13 30/65/13 29/63/13
f 15/35/9 26/55/9 25/52/9
f 19/42/11 28/61/11 27/58/11
f 13/32/14 25/53/14 30/66/14
f 35/74/13 41/84/13 42/85/13
f 18/40/11 33/71/11 34/72/11
f 24/50/14 36/76/14 31/67/14
f 20/44/12 34/73/12 35/74/12
f 16/36/10 32/69/10 33/70/10
f 22/46/13 35/74/13 36/75/13
f 40/83/12 46/93/12 47/94/12
f 33/71/11 39/81/11 40/82/11
f 31/68/9 37/78/9 38/79/9
f 36/76/14 42/86/14 37/77/14
f 34/73/12 40/83/12 41/84/12
f 32/69/10 38/79/10 39/80/10
f 45/91/11 51/101/11 52/102/11
f 38/79/10 44/89/10 45/90/10
f 41/84/13 47/94/13 48/95/13
f 39/81/11 45/91/11 46/92/11
f 37/78/9 43/87/9 44/89/9
f 42/86/14 48/96/14 43/88/14
f 50/99/10 56/109/10 57/110/10
f 44/89/9 43/87/9 49/98/9
f 43/88/14 48/96/14 54/106/14
f 46/93/12 52/103/12 53/104/12
f 44/89/10 50/99/10 51/100/10
f 47/94/13 53/104/13 54/105/13
f 56/109/9 55/107/9 61/118/9
f 53/104/13 59/114/13 60/115/13
f 51/101/11 57/111/11 58/112/11
f 49/98/9 55/107/9 56/109/9
f 54/106/14 60/116/14 55/108/14
f 52/103/12 58/113/12 59/114/12
f 65/124/13 71/134/13 72/135/13
f 55/108/14 60/116/14 66/126/14
f 58/113/12 64/123/12 65/124/12
f 56/109/10 62/119/10 63/120/10
f 59/114/13 65/124/13 66/125/13
f 57/111/11 63/121/11 64/122/11
f 72/136/14 78/146/14 73/137/14
f 63/121/11 69/131/11 70/132/11
f 61/118/9 67/128/9 68/129/9
f 66/126/14 72/136/14 67/127/14
f 64/123/12 70/133/12 71/134/12
f 62/119/10 68/129/10 69/130/10
f 77/144/13 83/154/13 84/155/13
f 70/133/12 76/143/12 77/144/12
f 68/129/10 74/139/10 75/140/10
f 71/134/13 77/144/13 78/145/13
f 69/131/11 75/141/11 76/142/11
f 67/128/9 73/138/9 74/139/9
f 84/156/14 90/170/14 85/157/14
f 75/141/11 81/151/11 82/152/11
f 73/138/9 79/148/9 80/149/9
f 78/146/14 84/156/14 79/147/14
f 76/143/12 82/153/12 83/154/12
f 74/139/10 80/149/10 81/150/10
f 89/169/15 95/179/15 96/182/15
f 82/153/12 88/165/12 89/169/12
f 80/149/10 86/161/10 87/163/10
f 83/154/13 89/169/13 90/172/13
f 81/151/11 87/162/11 88/166/11
f 79/148/9 85/158/9 86/161/9
f 93/176/5 92/175/5 91/173/5
f 91/173/5 96/181/5 95/180/5
f 95/180/5 94/178/5 91/173/5
f 85/159/16 98/186/151 97/183/17
f 91/173/19 104/202/152 108/209/20
f 88/167/22 99/189/153 101/193/23
f 87/163/25 93/177/154 106/204/26
f 86/161/28 92/174/28 93/177/28
f 98/186/29 110/214/155 109/212/30
f 100/190/32 106/204/156 118/237/33
f 98/187/35 102/196/157 114/225/36
f 97/184/38 109/213/158 115/227/39
f 94/178/41 105/203/159 106/205/42
f 89/169/44 101/194/160 107/207/45
f 94/178/47 95/180/161 107/208/48
f 85/159/50 90/171/162 102/197/51
f 91/173/53 92/175/163 103/201/54
f 90/172/56 96/182/164 108/210/57
f 88/167/59 87/164/165 100/191/60
f 86/161/62 97/185/166 103/200/63
f 112/220/65 118/237/167 130/263/66
f 110/215/68 114/225/168 126/256/69
f 109/213/71 121/246/169 127/257/72
f 117/233/74 119/239/170 131/266/75
f 104/202/77 116/230/171 120/243/78
f 104/202/80 103/201/172 115/228/81
f 99/188/83 100/192/173 112/221/84
f 101/195/86 113/224/174 119/240/87
f 105/203/89 117/234/175 118/238/90
f 99/189/92 111/217/176 113/223/93
f 102/198/95 108/210/177 120/244/96
f 105/203/98 107/208/178 119/241/99
f 125/253/101 141/294/101 144/303/101
f 126/255/103 132/268/103 138/284/103
f 121/245/104 122/248/104 134/272/104
f 124/251/105 130/263/105 143/299/105
f 110/216/106 122/248/179 121/245/107
f 116/231/109 128/259/180 132/267/110
f 116/232/112 115/229/181 127/258/113
f 111/218/115 112/221/182 124/252/116
f 113/224/118 125/253/183 131/265/119
f 117/235/121 129/262/184 130/264/122
f 111/219/124 123/250/185 125/254/125
f 114/226/127 120/244/186 132/268/128
f 133/270/130 134/273/187 137/282/131
f 135/276/133 138/285/188 137/282/134
f 128/259/136 137/283/136 138/286/136
f 126/256/137 135/277/137 134/274/137
f 128/260/138 127/258/138 136/279/138
f 121/246/139 133/271/139 136/280/139
f 140/291/141 143/300/189 142/297/142
f 141/295/144 139/287/190 142/297/145
f 129/261/147 131/266/147 144/304/147
f 125/254/148 123/250/148 139/288/148
f 129/262/149 142/298/149 143/301/149
f 124/252/150 140/292/150 139/289/150
