# Blender 3.3.1
# www.blender.org
o Cylinder
v 0.000000 -1.144325 -1.000000
v 0.000000 0.855675 -1.000000
v 0.866025 -1.144325 -0.500000
v 0.866025 0.855675 -0.500000
v 0.866025 -1.144325 0.500000
v 0.866025 0.855675 0.500000
v 0.000000 -1.144325 1.000000
v 0.000000 0.855675 1.000000
v -0.866025 -1.144325 0.500000
v -0.866025 0.855675 0.500000
v -0.866025 -1.144325 -0.500000
v -0.866025 0.855675 -0.500000
v 0.199318 0.922362 0.026799
v 0.199318 1.138102 0.026799
v 0.078770 0.922362 0.183007
v 0.078770 1.138102 0.183007
v -0.116784 0.922362 0.156714
v -0.116784 1.138102 0.156714
v -0.191790 0.922362 -0.025787
v -0.191790 1.138102 -0.025787
v -0.071242 0.922362 -0.181995
v -0.071242 1.138102 -0.181995
v 0.124311 0.922362 -0.155702
v 0.124311 1.138102 -0.155702
v 0.199318 0.807057 0.026799
v 0.078770 0.807057 0.183007
v -0.116784 0.807057 0.156714
v -0.191790 0.807057 -0.025788
v -0.071242 0.807057 -0.181995
v 0.124311 0.807057 -0.155702
v 0.199318 1.258683 0.026799
v 0.078770 1.258683 0.183007
v -0.116784 1.258683 0.156714
v -0.191790 1.258683 -0.025788
v -0.071242 1.258683 -0.181995
v 0.124312 1.258683 -0.155702
v 0.199318 1.359421 0.026799
v 0.078770 1.359421 0.183007
v -0.116784 1.359421 0.156714
v -0.191790 1.359421 -0.025787
v -0.071242 1.359421 -0.181995
v 0.124311 1.359421 -0.155702
v 0.199318 1.458634 0.026799
v 0.078770 1.458634 0.183007
v -0.116784 1.458634 0.156714
v -0.191790 1.458634 -0.025787
v -0.071242 1.458634 -0.181995
v 0.124312 1.458634 -0.155702
v 0.199318 1.562425 0.026799
v 0.078770 1.562425 0.183007
v -0.116784 1.562425 0.156714
v -0.191790 1.562425 -0.025787
v -0.071242 1.562425 -0.181995
v 0.124311 1.562425 -0.155702
v 0.199318 3.028924 0.026799
v 0.078770 3.028924 0.183007
v -0.116784 3.028924 0.156714
v -0.191790 3.028924 -0.025787
v -0.071242 3.028924 -0.181995
v 0.124311 3.028924 -0.155702
v 0.199318 3.154933 0.026799
v 0.078770 3.154933 0.183007
v -0.116784 3.154933 0.156714
v -0.191790 3.154933 -0.025787
v -0.071242 3.154933 -0.181995
v 0.124311 3.154933 -0.155702
v 0.199318 3.257315 0.026799
v 0.078770 3.257315 0.183007
v -0.116784 3.257315 0.156714
v -0.191790 3.257315 -0.025787
v -0.071242 3.257315 -0.181995
v 0.124311 3.257315 -0.155702
v 0.199318 3.375449 0.026799
v 0.078770 3.375449 0.183007
v -0.116784 3.375449 0.156714
v -0.191790 3.375449 -0.025787
v -0.071242 3.375449 -0.181995
v 0.124311 3.375449 -0.155702
v 0.199318 3.493583 0.026799
v 0.078770 3.493583 0.183007
v -0.116784 3.493583 0.156714
v -0.191790 3.493583 -0.025787
v -0.071242 3.493583 -0.181995
v 0.124311 3.493583 -0.155702
v 0.199317 3.788985 0.026799
v 0.078770 3.788985 0.183007
v -0.116784 3.788985 0.156714
v -0.191790 3.788985 -0.025787
v -0.071242 3.788985 -0.181995
v 0.124311 3.788985 -0.155702
v 0.060947 3.970973 0.008195
v 0.025697 3.970973 0.053872
v -0.031486 3.970973 0.046184
v -0.053419 3.970973 -0.007183
v -0.018169 3.970973 -0.052860
v 0.039014 3.970973 -0.045172
v 0.423659 3.923131 0.229380
v 0.505123 3.923131 0.067917
v -0.497595 3.923131 -0.066905
v -0.461673 3.923131 0.110341
v -0.416131 3.923131 -0.228368
v 0.469201 3.923131 -0.109329
v 0.293251 4.047882 0.089847
v 0.322725 4.105120 0.043392
v -0.315197 4.105120 -0.042380
v -0.299040 4.047882 0.010209
v -0.285723 4.047882 -0.088835
v 0.306568 4.047882 -0.009197
v 0.571310 4.104765 0.249232
v 0.672350 4.104765 0.090402
v -0.664823 4.104765 -0.089390
v -0.609323 4.104765 0.090489
v -0.563782 4.104765 -0.248220
v 0.616851 4.104765 -0.089477
v 0.366963 4.125725 0.099757
v 0.402115 4.144804 0.054067
v -0.394587 4.144804 -0.053055
v -0.372752 4.125725 0.000298
v -0.359435 4.125725 -0.098746
v 0.380280 4.125725 0.000714
v 0.676176 4.560528 0.263332
v 0.791121 4.560528 0.106371
v -0.783593 4.560528 -0.105359
v -0.714190 4.560528 0.076389
v -0.668648 4.560528 -0.262320
v 0.721717 4.560528 -0.075377
v 0.432666 4.444759 0.108592
v 0.472880 4.463839 0.063582
v -0.465352 4.463839 -0.062570
v -0.438455 4.444759 -0.008536
v -0.425138 4.444759 -0.107580
v 0.445983 4.444759 0.009548
v 0.580061 4.844421 0.250409
v 0.695006 4.844421 0.093448
v 0.625603 4.844421 -0.088300
v 0.336551 4.728652 0.095668
v 0.376765 4.747731 0.050658
v 0.349869 4.728652 -0.003375
v -0.687478 4.844421 -0.092436
v -0.618075 4.844421 0.089312
v -0.572533 4.844421 -0.249397
v -0.369237 4.747731 -0.049646
v -0.342341 4.728652 0.004387
v -0.329024 4.728652 -0.094657
vn 0.5000 -0.0000 -0.8660
vn 1.0000 -0.0000 -0.0000
vn 0.5000 -0.0000 0.8660
vn -0.5000 -0.0000 0.8660
vn -0.0000 1.0000 -0.0000
vn -1.0000 -0.0000 -0.0000
vn -0.5000 -0.0000 -0.8660
vn -0.0000 -1.0000 -0.0000
vn 0.7917 -0.0000 0.6109
vn -0.1333 -0.0000 0.9911
vn -0.9249 -0.0000 0.3801
vn -0.7917 -0.0000 -0.6109
vn 0.1333 -0.0000 -0.9911
vn 0.9249 -0.0000 -0.3801
vn 0.1110 0.5534 -0.8255
vn 0.3359 -0.9128 0.2325
vn 0.3583 -0.9106 0.2062
vn 0.3219 -0.9136 0.2484
vn -0.2970 0.9545 0.0260
vn -0.2746 0.7374 -0.6171
vn -0.2890 0.9499 0.1188
vn -0.3359 -0.9128 -0.2325
vn -0.3583 -0.9106 -0.2062
vn -0.3219 -0.9136 -0.2484
vn 0.0582 0.5224 0.8507
vn 0.0750 0.5306 0.8443
vn 0.0985 0.5417 0.8348
vn -0.1110 0.5534 0.8255
vn 0.6811 -0.6265 0.3790
vn 0.6697 -0.6325 0.3892
vn 0.7057 -0.6126 0.3560
vn 0.2958 0.3525 0.8879
vn 0.2855 0.3576 0.8891
vn 0.3072 0.3466 0.8863
vn 0.7570 -0.6265 -0.1857
vn 0.7487 -0.6325 -0.1984
vn 0.7305 -0.6447 -0.2254
vn -0.5198 0.3525 0.7782
vn -0.5102 0.3576 0.7821
vn -0.4933 0.3667 0.7888
vn 0.2970 0.9545 -0.0260
vn 0.2746 0.7374 0.6171
vn 0.2890 0.9499 -0.1188
vn 0.2808 0.5224 -0.8052
vn 0.2953 0.5306 -0.7945
vn 0.2567 0.5084 -0.8220
vn 0.2796 0.9545 0.1035
vn 0.4278 0.7374 -0.5227
vn 0.4323 0.6919 -0.5782
vn 0.3853 -0.9128 -0.1355
vn 0.4000 -0.9106 -0.1042
vn 0.4097 -0.9084 -0.0830
vn -0.2796 0.9545 -0.1035
vn -0.4278 0.7374 0.5227
vn -0.4323 0.6919 0.5782
vn -0.0582 0.5224 -0.8507
vn -0.0750 0.5306 -0.8443
vn -0.0985 0.5417 -0.8348
vn -0.3853 -0.9128 0.1355
vn -0.4000 -0.9106 0.1042
vn -0.4097 -0.9084 0.0830
vn -0.2808 0.5224 0.8052
vn -0.2953 0.5306 0.7945
vn -0.2567 0.5084 0.8220
vn 0.3410 0.1008 0.9346
vn 0.3375 0.1029 0.9357
vn 0.3329 0.1056 0.9370
vn 0.9294 -0.2109 -0.3030
vn 0.9164 -0.2207 -0.3338
vn 0.9102 -0.2250 -0.3476
vn -0.5758 0.1008 0.8114
vn -0.5727 0.1029 0.8133
vn -0.5811 0.0973 0.8080
vn 0.8107 0.1836 0.5560
vn 0.7749 0.1886 0.6032
vn 0.7707 0.1891 0.6084
vn -0.5552 0.7317 -0.3954
vn -0.5021 0.8173 -0.2825
vn -0.5959 0.6280 -0.5004
vn -0.6399 0.7317 0.2347
vn -0.5589 0.8173 0.1399
vn -0.4498 0.8927 0.0267
vn -0.7570 -0.6265 0.1857
vn -0.7487 -0.6325 0.1984
vn -0.7305 -0.6447 0.2254
vn 0.5198 0.3525 -0.7782
vn 0.5102 0.3576 -0.7821
vn 0.4933 0.3667 -0.7888
vn 0.5552 0.7317 0.3954
vn 0.5021 0.8173 0.2825
vn 0.5959 0.6280 0.5005
vn -0.6811 -0.6265 -0.3790
vn -0.6697 -0.6325 -0.3892
vn -0.7057 -0.6126 -0.3560
vn -0.2958 0.3525 -0.8879
vn -0.2855 0.3576 -0.8891
vn -0.3072 0.3466 -0.8863
vn 0.6399 0.7317 -0.2347
vn 0.5589 0.8173 -0.1399
vn 0.4498 0.8927 -0.0267
vn 0.4886 -0.1261 -0.8633
vn -0.2432 -0.1261 -0.9617
vn 0.7728 0.2874 0.5659
vn 0.2432 -0.1261 0.9617
vn 0.8164 -0.2109 0.5377
vn 0.7957 -0.2207 0.5640
vn 0.8256 -0.2062 0.5252
vn -0.9287 0.1836 0.3221
vn -0.9068 0.1886 0.3771
vn -0.9311 0.1830 0.3156
vn -0.8107 0.1836 -0.5560
vn -0.7749 0.1886 -0.6032
vn -0.7707 0.1891 -0.6084
vn -0.9294 -0.2109 0.3030
vn -0.9164 -0.2207 0.3338
vn -0.9102 -0.2250 0.3476
vn 0.5758 0.1008 -0.8114
vn 0.5727 0.1029 -0.8133
vn 0.5811 0.0973 -0.8080
vn 0.9287 0.1836 -0.3221
vn 0.9068 0.1886 -0.3771
vn 0.9311 0.1830 -0.3156
vn -0.8164 -0.2109 -0.5377
vn -0.7957 -0.2207 -0.5641
vn -0.8256 -0.2062 -0.5252
vn -0.3410 0.1008 -0.9346
vn -0.3375 0.1029 -0.9357
vn -0.3329 0.1056 -0.9370
vn -0.2836 0.9441 -0.1683
vn -0.3858 0.9210 -0.0532
vn -0.4291 0.9033 -0.0005
vn -0.3180 0.9441 0.0875
vn -0.3862 0.9210 -0.0506
vn -0.3030 0.9460 0.1157
vn -0.8260 -0.2568 0.5018
vn 0.8948 0.2874 -0.3417
vn -0.6641 -0.2568 -0.7022
vn -0.4886 -0.1261 0.8633
vn 0.3180 0.9441 -0.0875
vn 0.3862 0.9210 0.0506
vn 0.3030 0.9460 -0.1157
vn 0.2836 0.9441 0.1683
vn 0.3858 0.9210 0.0532
vn 0.4291 0.9033 0.0005
vn 0.6641 -0.2568 0.7022
vn -0.7728 0.2874 -0.5659
vn 0.8260 -0.2568 -0.5018
vn -0.8948 0.2874 0.3417
vn 0.3732 -0.9084 0.1883
vn -0.2642 0.6919 -0.6719
vn -0.3732 -0.9084 -0.1883
vn 0.0304 0.5084 0.8606
vn 0.6450 -0.6447 0.4103
vn 0.2674 0.3667 0.8911
vn 0.7747 -0.6126 -0.1570
vn -0.5304 0.3466 0.7737
vn 0.2642 0.6919 0.6719
vn 0.3155 0.5417 -0.7791
vn 0.2474 0.9499 0.1909
vn 0.3761 -0.9136 -0.1546
vn -0.2474 0.9499 -0.1909
vn -0.0304 0.5084 -0.8606
vn -0.3761 -0.9136 0.1546
vn -0.3155 0.5417 0.7791
vn 0.3470 0.0973 0.9328
vn 0.9350 -0.2062 -0.2885
vn -0.5686 0.1056 0.8158
vn 0.8146 0.1830 0.5503
vn -0.4268 0.8927 -0.1446
vn -0.7070 0.6280 0.3253
vn -0.7747 -0.6126 0.1570
vn 0.5304 0.3466 -0.7737
vn 0.4268 0.8927 0.1446
vn -0.6450 -0.6447 -0.4103
vn -0.2674 0.3667 -0.8911
vn 0.7070 0.6280 -0.3253
vn 0.7861 -0.2250 0.5757
vn -0.9041 0.1891 0.3833
vn -0.8146 0.1830 -0.5503
vn -0.9350 -0.2062 0.2885
vn 0.5686 0.1056 -0.8158
vn 0.9041 0.1891 -0.3833
vn -0.7861 -0.2250 -0.5757
vn -0.3470 0.0973 -0.9328
vn -0.2616 0.9460 -0.1916
vn -0.4140 0.9033 -0.1129
vn 0.4140 0.9033 0.1129
vn 0.2616 0.9460 0.1916
vt 0.490600 0.000000
vt 0.437104 0.481465
vt 0.437104 0.267481
vt 0.490600 0.213985
vt 0.854010 0.000000
vt 0.437104 0.000000
vt 0.529762 0.427969
vt 0.437104 0.213985
vt 0.854010 0.213985
vt 0.437104 0.374473
vt 0.597592 0.641954
vt 0.747018 0.000000
vt 0.622420 0.481465
vt 0.747018 0.213985
vt 0.597592 0.855939
vt 0.529762 0.427969
vt 0.544096 0.641954
vt 0.622420 0.588458
vt 0.544096 0.855939
vt 0.622420 0.374473
vt 0.651088 0.000000
vt 0.437104 0.641954
vt 0.529762 0.641954
vt 0.437104 0.855939
vt 0.622420 0.267481
vt 0.651088 0.213985
vt 0.597592 0.000000
vt 0.437104 0.588458
vt 0.529762 0.213985
vt 0.597592 0.213985
vt 0.132350 0.972230
vt 0.651088 0.028056
vt 0.125109 0.920271
vt 0.651088 0.080531
vt 0.173444 0.967081
vt 0.166203 0.915122
vt 0.699053 0.697260
vt 0.214682 0.960769
vt 0.207441 0.908810
vt 0.699053 0.644785
vt 0.350902 0.972230
vt 0.747018 0.697249
vt 0.747018 0.644775
vt 0.343661 0.920271
vt 0.391996 0.967081
vt 0.384755 0.915122
vt 0.699053 0.028046
vt 0.433234 0.960769
vt 0.425993 0.908810
vt 0.699053 0.080520
vt 0.478667 0.951925
vt 0.136220 1.000000
vt 0.651089 0.000010
vt 0.437104 0.927929
vt 0.177314 0.994851
vt 0.437104 0.879935
vt 0.218552 0.988539
vt 0.699053 0.725306
vt 0.354772 1.000000
vt 0.478667 0.855938
vt 0.747018 0.725295
vt 0.520231 0.879935
vt 0.395866 0.994851
vt 0.520231 0.927929
vt 0.437104 0.988539
vt 0.699053 0.000000
vt 0.651088 0.109859
vt 0.121062 0.891231
vt 0.162156 0.886081
vt 0.203394 0.879769
vt 0.699053 0.615456
vt 0.747018 0.615446
vt 0.339614 0.891231
vt 0.380708 0.886081
vt 0.421946 0.879769
vt 0.699053 0.109849
vt 0.651088 0.134362
vt 0.117681 0.866969
vt 0.158775 0.861819
vt 0.200013 0.855507
vt 0.699053 0.590954
vt 0.747018 0.590943
vt 0.336233 0.866969
vt 0.377327 0.861819
vt 0.418565 0.855507
vt 0.699053 0.134352
vt 0.114351 0.843074
vt 0.651088 0.158493
vt 0.155445 0.837925
vt 0.196683 0.831613
vt 0.699053 0.566822
vt 0.747018 0.566812
vt 0.332903 0.843074
vt 0.373997 0.837925
vt 0.415235 0.831613
vt 0.699053 0.158483
vt 0.651088 0.183739
vt 0.110868 0.818078
vt 0.151962 0.812928
vt 0.193199 0.806616
vt 0.699053 0.541577
vt 0.747018 0.541567
vt 0.329420 0.818077
vt 0.370514 0.812928
vt 0.411751 0.806616
vt 0.699053 0.183728
vt 0.061647 0.464886
vt 0.651088 0.540436
vt 0.102741 0.459737
vt 0.143979 0.453424
vt 0.699053 0.184880
vt 0.747018 0.184870
vt 0.280199 0.464886
vt 0.321293 0.459737
vt 0.362531 0.453424
vt 0.699053 0.540425
vt 0.651088 0.571085
vt 0.057418 0.434538
vt 0.098512 0.429389
vt 0.139750 0.423077
vt 0.699053 0.154231
vt 0.747018 0.154221
vt 0.275970 0.434538
vt 0.317064 0.429389
vt 0.358302 0.423077
vt 0.699053 0.571075
vt 0.651088 0.595987
vt 0.053982 0.409881
vt 0.095076 0.404731
vt 0.136313 0.398419
vt 0.699053 0.129328
vt 0.747018 0.129318
vt 0.272534 0.409880
vt 0.313628 0.404731
vt 0.354865 0.398418
vt 0.699053 0.595977
vt 0.651088 0.624721
vt 0.050017 0.381429
vt 0.091111 0.376280
vt 0.132348 0.369967
vt 0.699053 0.100595
vt 0.747018 0.100585
vt 0.268569 0.381429
vt 0.309663 0.376280
vt 0.350900 0.369967
vt 0.699053 0.624711
vt 0.651088 0.653455
vt 0.046052 0.352978
vt 0.087146 0.347829
vt 0.128383 0.341516
vt 0.699053 0.071861
vt 0.747018 0.071851
vt 0.264604 0.352978
vt 0.305698 0.347829
vt 0.346935 0.341516
vt 0.699053 0.653444
vt 0.651088 0.725305
vt 0.036137 0.281833
vt 0.788582 0.749302
vt 0.747018 0.725305
vt 0.077231 0.276684
vt 0.699053 0.000010
vt 0.118469 0.270371
vt 0.615926 0.865396
vt 0.254689 0.281833
vt 0.747018 0.000000
vt 0.657490 0.841399
vt 0.699053 0.865396
vt 0.295783 0.276684
vt 0.699053 0.725295
vt 0.830145 0.725305
vt 0.337021 0.270371
vt 0.634574 0.325784
vt 0.071225 0.232031
vt 0.646728 0.318767
vt 0.646728 0.304733
vt 0.083283 0.230186
vt 0.634574 0.297715
vt 0.289777 0.232031
vt 0.622420 0.304733
vt 0.622420 0.318767
vt 0.301835 0.230186
vt 0.747018 0.809950
vt 0.774549 0.438832
vt 0.000000 0.255508
vt 0.788582 0.824354
vt 0.842581 0.447019
vt 0.842581 0.217923
vt 0.657490 0.766347
vt 0.186695 0.226932
vt 0.615926 0.780752
vt 0.885284 0.213984
vt 0.699053 0.780752
vt 0.218552 0.255508
vt 0.774549 0.663680
vt 0.885284 0.443080
vt 0.830145 0.809950
vt 0.405247 0.226932
vt 0.819543 0.410092
vt 0.012223 0.222144
vt 0.646728 0.384431
vt 0.634574 0.390030
vt 0.634574 0.233469
vt 0.137123 0.203026
vt 0.646728 0.239068
vt 0.819543 0.634940
vt 0.230774 0.222144
vt 0.622420 0.239068
vt 0.622420 0.384431
vt 0.355675 0.203026
vt 0.915439 0.180850
vt 0.747018 0.846186
vt 0.756873 0.393837
vt 0.788582 0.865396
vt 0.824908 0.492769
vt 0.878197 0.179835
vt 0.657490 0.725305
vt 0.824908 0.263673
vt 0.854332 0.905141
vt 0.211735 0.178421
vt 0.870147 0.259530
vt 0.891574 0.906156
vt 0.699053 0.744515
vt 0.756873 0.618685
vt 0.870147 0.488625
vt 0.430287 0.178421
vt 0.810613 0.390750
vt 0.646728 0.402521
vt 0.747018 0.725306
vt 0.634574 0.409514
vt 0.633710 0.556168
vt 0.734744 0.729239
vt 0.903805 0.217917
vt 0.634574 0.213985
vt 0.633710 0.707079
vt 0.647843 0.711337
vt 0.150054 0.181899
vt 0.646728 0.220978
vt 0.916079 0.213984
vt 0.810613 0.615598
vt 0.622420 0.220978
vt 0.647843 0.560426
vt 0.622420 0.402521
vt 0.368606 0.181899
vt 0.894218 0.070098
vt 0.747018 0.282448
vt 0.819543 0.604414
vt 0.854010 0.069092
vt 0.819543 0.375319
vt 0.830145 0.794397
vt 0.218552 0.065270
vt 0.866584 0.371029
vt 0.747018 0.507296
vt 0.870353 0.795403
vt 0.437104 0.065270
vt 0.866585 0.600125
vt 0.804715 0.312821
vt 0.729577 0.802376
vt 0.622420 0.478754
vt 0.716223 0.806276
vt 0.885284 0.294955
vt 0.622420 0.629665
vt 0.153201 0.102942
vt 0.637211 0.633912
vt 0.804715 0.537669
vt 0.898638 0.291055
vt 0.637211 0.483001
vt 0.371753 0.102942
vt 0.915439 0.001005
vt 0.520231 0.893896
vt 0.761846 0.213984
vt 0.875231 0.000000
vt 0.548488 0.855938
vt 0.838243 0.672175
vt 0.407307 0.000000
vt 0.595706 0.859059
vt 0.885284 0.667886
vt 0.573636 0.939424
vt 0.747018 0.871974
vt 0.819543 0.244357
vt 0.733664 0.875874
vt 0.581220 0.926853
vt 0.633052 0.409514
vt 0.341957 0.037672
vt 0.595706 0.929237
vt 0.647843 0.413761
vt 0.644184 0.948881
vt 0.851366 0.725306
vt 0.838243 0.443080
vt 0.188755 0.000000
vt 0.615926 0.910923
vt 0.885284 0.438790
vt 0.891574 0.726312
vt 0.761846 0.438832
vt 0.691401 0.945760
vt 0.902725 0.364552
vt 0.676915 0.877966
vt 0.633052 0.560426
vt 0.123405 0.037672
vt 0.669331 0.865396
vt 0.647843 0.564672
vt 0.691401 0.875583
vt 0.819543 0.469205
vt 0.916079 0.360653
s 1
f 2/4/1 3/6/1 1/1/1
f 4/9/2 5/12/2 3/5/2
f 6/15/3 7/17/3 5/11/3
f 8/19/4 9/22/4 7/17/4
f 2/3/5 10/25/5 6/16/5
f 10/26/6 11/27/6 9/21/6
f 12/30/7 1/1/7 11/27/7
f 3/7/8 7/18/8 11/28/8
f 14/33/9 15/35/9 13/31/9
f 16/36/10 17/38/10 15/35/10
f 18/40/11 19/42/11 17/37/11
f 20/44/12 21/45/12 19/41/12
f 14/33/9 32/69/9 16/36/9
f 22/46/13 23/48/13 21/45/13
f 24/50/14 13/32/14 23/47/14
f 21/45/12 28/59/12 19/41/12
f 26/54/8 28/60/8 30/64/8
f 17/38/10 26/55/10 15/35/10
f 23/48/13 29/63/13 21/45/13
f 15/35/9 25/52/9 13/31/9
f 19/42/11 27/58/11 17/37/11
f 13/32/14 30/66/14 23/47/14
f 35/74/13 42/85/13 36/75/13
f 18/40/11 34/72/11 20/43/11
f 24/50/14 31/67/14 14/34/14
f 20/44/12 35/74/12 22/46/12
f 16/36/10 33/70/10 18/39/10
f 22/46/13 36/75/13 24/49/13
f 40/83/12 47/94/12 41/84/12
f 33/71/11 40/82/11 34/72/11
f 31/68/9 38/79/9 32/69/9
f 36/76/14 37/77/14 31/67/14
f 34/73/12 41/84/12 35/74/12
f 32/69/10 39/80/10 33/70/10
f 45/91/11 52/102/11 46/92/11
f 38/79/10 45/90/10 39/80/10
f 41/84/13 48/95/13 42/85/13
f 39/81/11 46/92/11 40/82/11
f 37/78/9 44/89/9 38/79/9
f 42/86/14 43/88/14 37/77/14
f 50/99/10 57/110/10 51/100/10
f 44/89/9 49/98/9 50/99/9
f 43/88/14 54/106/14 49/97/14
f 46/93/12 53/104/12 47/94/12
f 44/89/10 51/100/10 45/90/10
f 47/94/13 54/105/13 48/95/13
f 56/109/9 61/118/9 62/119/9
f 53/104/13 60/115/13 54/105/13
f 51/101/11 58/112/11 52/102/11
f 49/98/9 56/109/9 50/99/9
f 54/106/14 55/108/14 49/97/14
f 52/103/12 59/114/12 53/104/12
f 65/124/13 72/135/13 66/125/13
f 55/108/14 66/126/14 61/117/14
f 58/113/12 65/124/12 59/114/12
f 56/109/10 63/120/10 57/110/10
f 59/114/13 66/125/13 60/115/13
f 57/111/11 64/122/11 58/112/11
f 72/136/14 73/137/14 67/127/14
f 63/121/11 70/132/11 64/122/11
f 61/118/9 68/129/9 62/119/9
f 66/126/14 67/127/14 61/117/14
f 64/123/12 71/134/12 65/124/12
f 62/119/10 69/130/10 63/120/10
f 77/144/13 84/155/13 78/145/13
f 70/133/12 77/144/12 71/134/12
f 68/129/10 75/140/10 69/130/10
f 71/134/13 78/145/13 72/135/13
f 69/131/11 76/142/11 70/132/11
f 67/128/9 74/139/9 68/129/9
f 84/156/14 85/157/14 79/147/14
f 75/141/11 82/152/11 76/142/11
f 73/138/9 80/149/9 74/139/9
f 78/146/14 79/147/14 73/137/14
f 76/143/12 83/154/12 77/144/12
f 74/139/10 81/150/10 75/140/10
f 89/169/15 96/182/15 90/172/15
f 82/153/12 89/169/12 83/154/12
f 80/149/10 87/163/10 81/150/10
f 83/154/13 90/172/13 84/155/13
f 81/151/11 88/166/11 82/152/11
f 79/148/9 86/161/9 80/149/9
f 94/178/5 93/176/5 91/173/5
f 85/159/16 97/183/17 86/160/18
f 91/173/19 108/209/20 96/181/21
f 88/167/22 101/193/23 89/168/24
f 87/163/25 106/204/26 100/190/27
f 86/161/28 93/177/28 87/163/28
f 98/186/29 109/212/30 97/183/31
f 100/190/32 118/237/33 112/220/34
f 98/187/35 114/225/36 110/215/37
f 97/184/38 115/227/39 103/199/40
f 94/178/41 106/205/42 93/176/43
f 89/169/44 107/207/45 95/179/46
f 94/178/47 107/208/48 105/203/49
f 85/159/50 102/197/51 98/186/52
f 91/173/53 103/201/54 104/202/55
f 90/172/56 108/210/57 102/198/58
f 88/167/59 100/191/60 99/189/61
f 86/161/62 103/200/63 92/174/64
f 112/220/65 130/263/66 124/251/67
f 110/215/68 126/256/69 122/247/70
f 109/213/71 127/257/72 115/227/73
f 117/233/74 131/266/75 129/261/76
f 104/202/77 120/243/78 108/209/79
f 104/202/80 115/228/81 116/230/82
f 99/188/83 112/221/84 111/218/85
f 101/195/86 119/240/87 107/206/88
f 105/203/89 118/238/90 106/205/91
f 99/189/92 113/223/93 101/193/94
f 102/198/95 120/244/96 114/226/97
f 105/203/98 119/241/99 117/234/100
f 125/253/101 144/303/101 131/265/101
f 126/255/102 138/284/102 135/275/102
f 121/245/103 134/272/103 133/269/103
f 124/251/104 143/299/104 140/290/104
f 110/216/105 121/245/106 109/211/107
f 116/231/108 132/267/109 120/242/110
f 116/232/111 127/258/112 128/260/113
f 111/218/114 124/252/115 123/249/116
f 113/224/117 131/265/118 119/240/119
f 117/235/120 130/264/121 118/236/122
f 111/219/123 125/254/124 113/222/125
f 114/226/126 132/268/127 126/255/128
f 133/270/129 137/282/130 136/278/131
f 135/276/132 137/282/133 134/273/134
f 128/259/135 138/286/135 132/267/135
f 126/256/136 134/274/136 122/247/136
f 128/260/137 136/279/137 137/281/137
f 121/246/138 136/280/138 127/257/138
f 140/291/139 142/297/140 139/287/141
f 141/295/142 142/297/143 144/302/144
f 129/261/145 144/304/145 142/296/145
f 125/254/146 139/288/146 141/293/146
f 129/262/147 143/301/147 130/264/147
f 124/252/148 139/289/148 123/249/148
f 2/4/1 4/8/1 3/6/1
f 4/9/2 6/14/2 5/12/2
f 6/15/3 8/19/3 7/17/3
f 8/19/4 10/24/4 9/22/4
f 6/16/5 4/10/5 2/3/5
f 2/3/5 12/29/5 10/25/5
f 10/25/5 8/20/5 6/16/5
f 10/26/6 12/30/6 11/27/6
f 12/30/7 2/4/7 1/1/7
f 11/28/8 1/2/8 3/7/8
f 3/7/8 5/13/8 7/18/8
f 7/18/8 9/23/8 11/28/8
f 14/33/9 16/36/9 15/35/9
f 16/36/10 18/39/10 17/38/10
f 18/40/11 20/43/11 19/42/11
f 20/44/12 22/46/12 21/45/12
f 14/33/9 31/68/9 32/69/9
f 22/46/13 24/49/13 23/48/13
f 24/50/14 14/34/14 13/32/14
f 21/45/12 29/63/12 28/59/12
f 30/64/8 25/51/8 26/54/8
f 26/54/8 27/56/8 28/60/8
f 28/60/8 29/62/8 30/64/8
f 17/38/10 27/57/10 26/55/10
f 23/48/13 30/65/13 29/63/13
f 15/35/9 26/55/9 25/52/9
f 19/42/11 28/61/11 27/58/11
f 13/32/14 25/53/14 30/66/14
f 35/74/13 41/84/13 42/85/13
f 18/40/11 33/71/11 34/72/11
f 24/50/14 36/76/14 31/67/14
f 20/44/12 34/73/12 35/74/12
f 16/36/10 32/69/10 33/70/10
f 22/46/13 35/74/13 36/75/13
f 40/83/12 46/93/12 47/94/12
f 33/71/11 39/81/11 40/82/11
f 31/68/9 37/78/9 38/79/9
f 36/76/14 42/86/14 37/77/14
f 34/73/12 40/83/12 41/84/12
f 32/69/10 38/79/10 39/80/10
f 45/91/11 51/101/11 52/102/11
f 38/79/10 44/89/10 45/90/10
f 41/84/13 47/94/13 48/95/13
f 39/81/11 45/91/11 46/92/11
f 37/78/9 43/87/9 44/89/9
f 42/86/14 48/96/14 43/88/14
f 50/99/10 56/109/10 57/110/10
f 44/89/9 43/87/9 49/98/9
f 43/88/14 48/96/14 54/106/14
f 46/93/12 52/103/12 53/104/12
f 44/89/10 50/99/10 51/100/10
f 47/94/13 53/104/13 54/105/13
f 56/109/9 55/107/9 61/118/9
f 53/104/13 59/114/13 60/115/13
f 51/101/11 57/111/11 58/112/11
f 49/98/9 55/107/9 56/109/9
f 54/106/14 60/116/14 55/108/14
f 52/103/12 58/113/12 59/114/12
f 65/124/13 71/134/13 72/135/13
f 55/108/14 60/116/14 66/126/14
f 58/113/12 64/123/12 65/124/12
f 56/109/10 62/119/10 63/120/10
f 59/114/13 65/124/13 66/125/13
f 57/111/11 63/121/11 64/122/11
f 72/136/14 78/146/14 73/137/14
f 63/121/11 69/131/11 70/132/11
f 61/118/9 67/128/9 68/129/9
f 66/126/14 72/136/14 67/127/14
f 64/123/12 70/133/12 71/134/12
f 62/119/10 68/129/10 69/130/10
f 77/144/13 83/154/13 84/155/13
f 70/133/12 76/143/12 77/144/12
f 68/129/10 74/139/10 75/140/10
f 71/134/13 77/144/13 78/145/13
f 69/131/11 75/141/11 76/142/11
f 67/128/9 73/138/9 74/139/9
f 84/156/14 90/170/14 85/157/14
f 75/141/11 81/151/11 82/152/11
f 73/138/9 79/148/9 80/149/9
f 78/146/14 84/156/14 79/147/14
f 76/143/12 82/153/12 83/154/12
f 74/139/10 80/149/10 81/150/10
f 89/169/15 95/179/15 96/182/15
f 82/153/12 88/165/12 89/169/12
f 80/149/10 86/161/10 87/163/10
f 83/154/13 89/169/13 90/172/13
f 81/151/11 87/162/11 88/166/11
f 79/148/9 85/158/9 86/161/9
f 93/176/5 92/175/5 91/173/5
f 91/173/5 96/181/5 95/180/5
f 95/180/5 94/178/5 91/173/5
f 85/159/16 98/186/149 97/183/17
f 91/173/19 104/202/150 108/209/20
f 88/167/22 99/189/151 101/193/23
f 87/163/25 93/177/152 106/204/26
f 86/161/28 92/174/28 93/177/28
f 98/186/29 110/214/153 109/212/30
f 100/190/32 106/204/154 118/237/33
f 98/187/35 102/196/155 114/225/36
f 97/184/38 109/213/156 115/227/39
f 94/178/41 105/203/157 106/205/42
f 89/169/44 101/194/158 107/207/45
f 94/178/47 95/180/159 107/208/48
f 85/159/50 90/171/160 102/197/51
f 91/173/53 92/175/161 103/201/54
f 90/172/56 96/182/162 108/210/57
f 88/167/59 87/164/163 100/191/60
f 86/161/62 97/185/164 103/200/63
f 112/220/65 118/237/165 130/263/66
f 110/215/68 114/225/166 126/256/69
f 109/213/71 121/246/167 127/257/72
f 117/233/74 119/239/168 131/266/75
f 104/202/77 116/230/169 120/243/78
f 104/202/80 103/201/170 115/228/81
f 99/188/83 100/192/171 112/221/84
f 101/195/86 113/224/172 119/240/87
f 105/203/89 117/234/173 118/238/90
f 99/189/92 111/217/174 113/223/93
f 102/198/95 108/210/175 120/244/96
f 105/203/98 107/208/176 119/241/99
f 125/253/101 141/294/101 144/303/101
f 126/255/102 132/268/102 138/284/102
f 121/245/103 122/248/103 134/272/103
f 124/251/104 130/263/104 143/299/104
f 110/216/105 122/248/177 121/245/106
f 116/231/108 128/259/178 132/267/109
f 116/232/111 115/229/179 127/258/112
f 111/218/114 112/221/180 124/252/115
f 113/224/117 125/253/181 131/265/118
f 117/235/120 129/262/182 130/264/121
f 111/219/123 123/250/183 125/254/124
f 114/226/126 120/244/184 132/268/127
f 133/270/129 134/273/185 137/282/130
f 135/276/132 138/285/186 137/282/133
f 128/259/135 137/283/135 138/286/135
f 126/256/136 135/277/136 134/274/136
f 128/260/137 127/258/137 136/279/137
f 121/246/138 133/271/138 136/280/138
f 140/291/139 143/300/187 142/297/140
f 141/295/142 139/287/188 142/297/143
f 129/261/145 131/266/145 144/304/145
f 125/254/146 123/250/146 139/288/146
f 129/262/147 142/298/147 143/301/147
f 124/252/148 140/292/148 139/289/148
