# Blender v3.3.1 OBJ File: ''
# www.blender.org
v 1.000000 1.000000 -1.546915
v 2.937686 -1.000000 -1.546915
v 1.000000 1.000000 0.453085
v 2.937686 -1.000000 2.733721
v -0.425083 1.000000 -1.100632
v -0.425083 -1.000000 -1.100632
v -0.425083 1.000000 0.453085
v -1.000000 -1.000000 2.733721
vt 0.875000 0.500000
vt 0.625000 0.750000
vt 0.625000 0.500000
vt 0.375000 1.000000
vt 0.375000 0.750000
vt 0.875000 0.750000
vt 0.125000 0.750000
vt 0.375000 0.500000
vt 0.125000 0.500000
vt 0.625000 1.000000
vt 0.375000 0.250000
vt 0.625000 0.250000
vn 0.0000 1.0000 0.0000
vn 0.0000 0.7519 0.6593
vn -0.9611 0.2763 0.0000
vn 0.0000 -1.0000 -0.0000
vn 0.7182 0.6958 0.0000
vn -0.2989 0.0000 -0.9543
vn -0.9889 0.0000 -0.1483
vn -0.1305 -0.1264 -0.9834
s off
f 5/1/1 3/2/1 1/3/1
f 3/2/2 8/4/2 4/5/2
f 7/6/3 5/1/3 8/7/3
f 2/8/4 8/7/4 6/9/4
f 2/8/5 3/2/5 4/5/5
f 6/9/6 5/1/6 1/3/6
f 5/1/1 7/6/1 3/2/1
f 3/2/2 7/10/2 8/4/2
f 6/11/7 8/7/7 5/12/7
f 2/8/4 4/5/4 8/7/4
f 2/8/5 1/3/5 3/2/5
f 2/8/8 6/9/8 1/3/8
